<?xml version="1.0" standalone="no"?>
<!DOCTYPE svg PUBLIC "-//W3C//DTD SVG 1.1//EN" "http://www.w3.org/Graphics/SVG/1.1/DTD/svg11.dtd" >
<svg>
<metadata>
Created by FontForge 20090622 at Mon Aug 31 14:17:14 2015
 By deploy user
2007 Ole Schaefer published by FSI FontShop International GmbH
</metadata>
<defs>
<font id="ZineSlabDisplayOT-Bold" horiz-adv-x="1" >
  <font-face 
    font-family="ZineSlabDisplayOT-Bold"
    font-weight="700"
    font-stretch="normal"
    units-per-em="1000"
    panose-1="2 1 8 4 3 1 1 2 1 2"
    ascent="775"
    descent="-225"
    x-height="470"
    cap-height="667"
    bbox="-506 -281 1236 937"
    underline-thickness="75"
    underline-position="-118"
    unicode-range="U+000D-U+1F4C4"
  />
<missing-glyph horiz-adv-x="536" 
d="M10 0v667h516v-667h-516zM125 115h286v437h-286v-437z" />
    <glyph glyph-name="f_i" unicode="fi" horiz-adv-x="536" 
d="M526 8q-39 -18 -89 -18q-106 0 -106 120v255h-126v-260h60v-105h-255v105h60v260h-60v105h60v87q0 74 39 112t111 38q60 0 117 -25v-156h-85v65q-2 0 -7.5 0.5t-9.5 0.5q-30 0 -30 -48v-74h261v-335q0 -30 23 -30q16 0 37 8v-105zM466 552h-109v115h109v-115z" />
    <glyph glyph-name="f_l" unicode="fl" horiz-adv-x="536" 
d="M321 526h-69v65q-2 0 -7.5 0.5t-9.5 0.5q-30 0 -30 -48v-74h70v-105h-70v-260h60v-105h-255v105h60v260h-60v105h60v87q0 74 39 112t111 38q52 0 101 -18v-163zM526 8q-39 -18 -89 -18q-106 0 -106 120v587h135v-562q0 -30 23 -30q16 0 37 8v-105z" />
    <glyph glyph-name=".notdef" horiz-adv-x="536" 
d="M10 0v667h516v-667h-516zM125 115h286v437h-286v-437z" />
    <glyph glyph-name=".null" horiz-adv-x="0" 
 />
    <glyph glyph-name="nonmarkingreturn" horiz-adv-x="333" 
 />
    <glyph glyph-name="CR" unicode="&#xd;" horiz-adv-x="250" 
 />
    <glyph glyph-name="space" unicode=" " horiz-adv-x="250" 
 />
    <glyph glyph-name="exclam" unicode="!" horiz-adv-x="270" 
d="M210 420l-10 -208h-130l-10 208v247h150v-247zM210 0h-150v150h150v-150z" />
    <glyph glyph-name="quotedbl" unicode="&#x22;" horiz-adv-x="460" 
d="M400 436h-140v201h140v-201zM200 436h-140v201h140v-201z" />
    <glyph glyph-name="numbersign" unicode="#" horiz-adv-x="580" 
d="M530 147h-65v-147h-140v147h-70v-147h-140v147h-65v125h65v123h-65v125h65v147h140v-147h70v147h140v-147h65v-125h-65v-123h65v-125zM325 272v123h-70v-123h70z" />
    <glyph glyph-name="dollar" unicode="$" horiz-adv-x="478" 
d="M448 180q0 -164 -159 -186v-110h-105v109q-73 2 -150 34v161h105v-71q39 -12 82 -12q84 0 84 68q0 32 -17 50.5t-52 31.5l-64 25q-142 54 -142 181q0 77 44 123.5t120 58.5v110h105v-110q74 -7 143 -34v-154h-105v67q-39 12 -85 12q-79 0 -79 -63q0 -21 12 -36t23.5 -21
t35.5 -16l68 -29q136 -57 136 -189z" />
    <glyph glyph-name="percent" unicode="%" horiz-adv-x="885" 
d="M860 176q0 -97 -49.5 -141.5t-123.5 -44.5t-123.5 44.5t-49.5 141.5t49.5 141.5t123.5 44.5t123.5 -44.5t49.5 -141.5zM371 461q0 -97 -49.5 -141.5t-123.5 -44.5t-123.5 44.5t-49.5 141.5t49.5 141.5t123.5 44.5t123.5 -44.5t49.5 -141.5zM646 622l-281 -637l-126 30
l281 637zM231 461q0 54 -7 73.5t-26 19.5t-26 -19.5t-7 -73.5t7 -73.5t26 -19.5t26 19.5t7 73.5zM720 176q0 54 -7 73.5t-26 19.5t-26 -19.5t-7 -73.5t7 -73.5t26 -19.5t26 19.5t7 73.5z" />
    <glyph glyph-name="ampersand" unicode="&#x26;" horiz-adv-x="609" 
d="M577 49l-102 -79l-72 79q-21 -18 -38.5 -28.5t-52 -20.5t-76.5 -10q-86 0 -143.5 41t-57.5 130q0 121 117 177q-72 54 -72 141q0 83 50.5 125.5t140.5 42.5q83 0 133 -42.5t50 -120.5q0 -37 -10.5 -65t-31 -45.5t-37.5 -27t-42 -18.5l91 -103q16 45 16 119h130
q0 -70 -17 -130t-43 -89zM331 133l-109 124q-42 -31 -42 -83q0 -35 18 -54t50 -19q42 0 83 32zM319 484q0 26 -13.5 41t-37.5 15q-53 0 -53 -59q0 -47 53 -78q51 22 51 81z" />
    <glyph glyph-name="quotesingle" unicode="'" horiz-adv-x="260" 
d="M200 436h-140v201h140v-201z" />
    <glyph glyph-name="parenleft" unicode="(" horiz-adv-x="273" 
d="M283 -48l-89 -36q-159 186 -159 415t159 415l89 -36q-38 -68 -68 -168t-30 -212t29.5 -211t68.5 -167z" />
    <glyph glyph-name="parenright" unicode=")" horiz-adv-x="273" 
d="M238 331q0 -229 -159 -415l-89 36q39 68 68.5 167t29.5 211t-30 212t-68 168l89 36q159 -186 159 -415z" />
    <glyph glyph-name="asterisk" unicode="*" horiz-adv-x="385" 
d="M352 463l-42 -73l-76 44v-87h-84v87l-76 -44l-42 73l76 43l-76 44l42 73l76 -44v88h84v-88l76 44l42 -73l-76 -44z" />
    <glyph glyph-name="plus" unicode="+" horiz-adv-x="431" 
d="M401 257h-128v-140h-114v140h-129v110h129v139h114v-139h128v-110z" />
    <glyph glyph-name="comma" unicode="," horiz-adv-x="265" 
d="M205 10l-36 -156l-96 16l26 130h-39v145h145v-135z" />
    <glyph glyph-name="hyphen" unicode="-" horiz-adv-x="277" 
d="M247 227h-217v120h217v-120z" />
    <glyph glyph-name="period" unicode="." horiz-adv-x="265" 
d="M205 0h-145v145h145v-145z" />
    <glyph glyph-name="slash" unicode="/" horiz-adv-x="336" 
d="M323 657l-177 -672l-133 25l177 672z" />
    <glyph glyph-name="zero" unicode="0" horiz-adv-x="538" 
d="M503 319q0 -329 -234 -329t-234 329q0 328 234 328t234 -328zM358 319q0 123 -20 170.5t-69 47.5t-69 -48.5t-20 -169.5q0 -124 20 -170.5t69 -46.5t69 46.5t20 170.5z" />
    <glyph glyph-name="one" unicode="1" horiz-adv-x="335" 
d="M315 0h-290v105h80v383l-75 -13l-10 91l138 71h87v-532h70v-105z" />
    <glyph glyph-name="two" unicode="2" horiz-adv-x="475" 
d="M440 0h-405q0 115 34 180.5t96 112.5l50 38q25 19 38.5 32t24.5 36.5t11 53.5q0 80 -81 80q-32 0 -68 -11v-62h-105v145q102 42 192 42q97 0 152 -48t55 -145q0 -73 -30 -118.5t-81 -84.5l-47 -36q-37 -28 -56.5 -49.5t-24.5 -50.5h140v63h105v-178z" />
    <glyph glyph-name="three" unicode="3" horiz-adv-x="465" 
d="M430 183q0 -100 -60.5 -146.5t-155.5 -46.5t-179 34v154h105v-70q30 -8 61 -8q84 0 84 89q0 91 -102 91h-64v110h64q92 0 92 75q0 70 -72 70q-30 0 -63 -9v-66h-105v151q96 36 186 36q87 0 143 -37.5t56 -119.5q0 -67 -31.5 -100t-79.5 -50q121 -33 121 -157z" />
    <glyph glyph-name="four" unicode="4" horiz-adv-x="520" 
d="M500 110h-70v-110h-140v110h-260v115l250 412h150v-412h70v-115zM290 225v252l-152 -252h152z" />
    <glyph glyph-name="five" unicode="5" horiz-adv-x="479" 
d="M444 196q0 -109 -59.5 -157.5t-153.5 -48.5q-89 0 -171 33v155h105v-71q26 -7 51 -7q83 0 83 96q0 51 -15.5 73.5t-49.5 22.5q-42 0 -78 -46l-94 14l10 377h368v-177h-105v62h-125l-7 -136q27 16 66 16q32 0 60 -9t55.5 -30t43.5 -63.5t16 -103.5z" />
    <glyph glyph-name="six" unicode="6" horiz-adv-x="520" 
d="M485 198q0 -106 -60.5 -157t-163.5 -51q-110 0 -168 67t-58 217q0 192 69.5 282.5t185.5 90.5q86 0 151 -31v-156h-105v73q-16 4 -45 4q-43 0 -73.5 -44.5t-33.5 -121.5q51 40 119 40q76 0 129 -49.5t53 -163.5zM340 199q0 54 -18 78t-55 24q-44 0 -87 -31v-20
q0 -84 21 -117t61 -33q39 0 58.5 23t19.5 76z" />
    <glyph glyph-name="seven" unicode="7" horiz-adv-x="442" 
d="M422 522l-170 -522h-145l174 522h-156v-62h-105v177h402v-115z" />
    <glyph glyph-name="eight" unicode="8" horiz-adv-x="530" 
d="M495 176q0 -95 -54.5 -140.5t-174.5 -45.5q-112 0 -171.5 45.5t-59.5 136.5q0 68 34.5 105.5t79.5 51.5q-47 22 -74 56.5t-27 99.5q0 78 59 120t161 42q101 0 157.5 -41.5t56.5 -120.5q0 -108 -106 -143q119 -37 119 -166zM350 176q0 41 -24 62.5t-76 38.5
q-35 -18 -52.5 -40t-17.5 -59q0 -39 24 -59t63 -20q38 0 60.5 19t22.5 58zM337 479q0 61 -71 61q-35 0 -54 -16t-19 -45q0 -31 20.5 -48.5t61.5 -33.5q21 10 31 16.5t20.5 24t10.5 41.5z" />
    <glyph glyph-name="nine" unicode="9" horiz-adv-x="523" 
d="M488 324q0 -175 -55.5 -254.5t-176.5 -79.5q-87 0 -165 28v160h105v-70q33 -6 50 -6q42 0 68.5 38.5t26.5 119.5v9q-49 -32 -112 -32q-83 0 -138.5 46.5t-55.5 147.5q0 109 61 162.5t161 53.5q118 0 174.5 -77t56.5 -246zM343 377q0 85 -20.5 122.5t-66.5 37.5
q-37 0 -56.5 -26t-19.5 -74q0 -90 74 -90q44 0 89 30z" />
    <glyph glyph-name="colon" unicode=":" horiz-adv-x="265" 
d="M205 325h-145v145h145v-145zM205 0h-145v145h145v-145z" />
    <glyph glyph-name="semicolon" unicode=";" horiz-adv-x="265" 
d="M205 10l-36 -156l-96 16l26 130h-39v145h145v-135zM205 325h-145v145h145v-145z" />
    <glyph glyph-name="less" unicode="&#x3c;" horiz-adv-x="426" 
d="M396 215l-45 -109l-321 151v110l321 169l45 -107l-236 -115z" />
    <glyph glyph-name="equal" unicode="=" horiz-adv-x="441" 
d="M411 347h-381v110h381v-110zM411 177h-381v110h381v-110z" />
    <glyph glyph-name="greater" unicode="&#x3e;" horiz-adv-x="426" 
d="M396 257l-321 -151l-45 109l236 99l-236 115l45 107l321 -169v-110z" />
    <glyph glyph-name="question" unicode="?" horiz-adv-x="447" 
d="M412 507q0 -80 -58 -140l-26 -26t-27.5 -29.5t-15 -27t-8.5 -37.5q0 -7 2 -35h-140q-3 32 -3 46q0 38 13.5 71t27.5 50t40 43q23 23 34 41t11 43t-16.5 40.5t-48.5 15.5q-23 0 -57 -9v-68h-105v156q99 36 184 36q83 0 138 -39t55 -131zM284 0h-150v150h150v-150z" />
    <glyph glyph-name="at" unicode="@" horiz-adv-x="959" 
d="M924 294q0 -72 -15 -127.5t-38 -88t-55 -53.5t-62 -28t-62 -7q-136 0 -137 123q-59 -123 -161 -123q-60 0 -99 42t-39 128q0 132 67.5 219t172.5 87q62 0 105 -38l104 9l-47 -273q-2 -16 -2 -22q0 -46 38 -46q33 0 59 52.5t26 135.5q0 125 -79.5 194t-207.5 69
q-127 0 -216.5 -92t-89.5 -251q0 -300 359 -300q35 0 72 3v-115q-44 -4 -97 -4q-231 0 -358 103t-127 313q0 111 39.5 201.5t105 146.5t147 85.5t170.5 29.5q117 0 212.5 -41.5t155 -128t59.5 -203.5zM553 344q-14 16 -46 16q-43 0 -78 -59.5t-35 -139.5q0 -32 8.5 -45.5
t26.5 -13.5q30 0 65 49t49 133z" />
    <glyph glyph-name="A" unicode="A" horiz-adv-x="612" 
d="M602 0h-165l-43 162h-176l-15 -57h50v-105h-243v105h51l129 457h-60v105h262l160 -562h50v-105zM369 277l-64 249l-63 -249h127z" />
    <glyph glyph-name="B" unicode="B" horiz-adv-x="547" 
d="M507 187q0 -105 -60.5 -146t-169.5 -41h-267v105h60v457h-60v105h266q99 0 157.5 -41t58.5 -130q0 -38 -9.5 -65.5t-26.5 -44t-32 -25t-35 -15.5q118 -26 118 -159zM362 199q0 51 -26 70.5t-79 19.5h-47v-182h46q58 0 82 20t24 72zM347 479q0 43 -21.5 62t-69.5 19h-46
v-165h46q45 0 68 18.5t23 65.5z" />
    <glyph glyph-name="C" unicode="C" horiz-adv-x="551" 
d="M521 38q-48 -24 -92 -36t-113 -12q-128 0 -202 82.5t-74 260.5q0 164 77 254t205 90q102 0 199 -42v-150h-105v63q-44 13 -89 13q-62 0 -102 -58t-40 -170q0 -225 141 -225q45 0 90 15v65h105v-150z" />
    <glyph glyph-name="D" unicode="D" horiz-adv-x="625" 
d="M585 333q0 -333 -337 -333h-238v105h60v457h-60v105h255q147 0 233.5 -79.5t86.5 -254.5zM440 333q0 123 -46 171t-135 48h-49v-437h35q100 0 147.5 49.5t47.5 168.5z" />
    <glyph glyph-name="E" unicode="E" horiz-adv-x="509" 
d="M489 0h-479v105h60v457h-60v105h479v-182h-105v67h-174v-155h216v-115h-216v-167h174v73h105v-188z" />
    <glyph glyph-name="F" unicode="F" horiz-adv-x="509" 
d="M489 485h-105v67h-174v-155h216v-115h-216v-177h80v-105h-280v105h60v457h-60v105h479v-182z" />
    <glyph glyph-name="G" unicode="G" horiz-adv-x="628" 
d="M558 0h-140v32q-49 -42 -127 -42q-38 0 -71.5 9t-67 32.5t-58 61t-39.5 98t-15 139.5q0 94 26.5 164t71.5 108.5t95 56.5t106 18q49 0 91.5 -8.5t64 -17.5t53.5 -25v-141h-105v58q-43 18 -104 18q-62 0 -108 -54.5t-46 -173.5q0 -123 34.5 -175t88.5 -52q61 0 110 31v135
h-111v115h251v-387z" />
    <glyph glyph-name="H" unicode="H" horiz-adv-x="626" 
d="M616 0h-270v105h70v177h-206v-177h60v-105h-260v105h60v457h-60v105h270v-105h-70v-165h206v165h-60v105h260v-105h-60v-457h60v-105z" />
    <glyph glyph-name="I" unicode="I" horiz-adv-x="280" 
d="M270 0h-260v105h60v457h-60v105h260v-105h-60v-457h60v-105z" />
    <glyph glyph-name="J" unicode="J" horiz-adv-x="290" 
d="M220 108q0 -56 -14.5 -98.5t-42 -69.5t-52.5 -42t-60 -29l-46 94q26 20 39 33.5t24.5 42.5t11.5 69v454h-70v105h210v-559z" />
    <glyph glyph-name="K" unicode="K" horiz-adv-x="561" 
d="M270 0h-260v105h60v457h-60v105h260v-105h-60v-457h60v-105zM551 0h-149l-186 355l186 312h149v-105h-59l-124 -203l133 -254h50v-105z" />
    <glyph glyph-name="L" unicode="L" horiz-adv-x="460" 
d="M440 0h-430v105h60v457h-60v105h280v-105h-80v-437h125v63h105v-188z" />
    <glyph glyph-name="M" unicode="M" horiz-adv-x="825" 
d="M815 0h-260v105h60v311l-155 -416h-95l-155 416v-311h60v-105h-260v105h60v457h-60v105h245l158 -422l157 422h245v-105h-60v-457h60v-105z" />
    <glyph glyph-name="N" unicode="N" horiz-adv-x="646" 
d="M636 562h-60v-562h-140l-226 413v-308h60v-105h-260v105h60v457h-60v105h219l207 -376v271h-60v105h260v-105z" />
    <glyph glyph-name="O" unicode="O" horiz-adv-x="656" 
d="M621 334q0 -170 -80 -257t-213 -87t-213 87t-80 257t80 256.5t213 86.5t213 -86.5t80 -256.5zM476 334q0 117 -39.5 175t-108.5 58t-108.5 -58t-39.5 -175t39.5 -174t108.5 -57t108.5 57t39.5 174z" />
    <glyph glyph-name="P" unicode="P" horiz-adv-x="519" 
d="M489 469q0 -60 -18.5 -103.5t-51.5 -67.5t-73.5 -35t-90.5 -11h-45v-147h80v-105h-280v105h60v457h-60v105h245q234 0 234 -198zM344 461q0 54 -23.5 76.5t-74.5 22.5h-36v-201h35q50 0 74.5 21t24.5 81z" />
    <glyph glyph-name="Q" unicode="Q" horiz-adv-x="656" 
d="M621 334q0 -147 -60.5 -232.5t-165.5 -105.5v-166h-135v166q-104 20 -164.5 105.5t-60.5 232.5q0 170 80 256.5t213 86.5t213 -86.5t80 -256.5zM476 334q0 117 -39.5 175t-108.5 58t-108.5 -58t-39.5 -175q0 -166 80 -217v110h135v-111q81 50 81 218z" />
    <glyph glyph-name="R" unicode="R" horiz-adv-x="536" 
d="M526 0h-146l-146 255h-24v-150h60v-105h-260v105h60v457h-60v105h245q234 0 234 -198q0 -146 -117 -193l104 -171h50v-105zM344 461q0 54 -23.5 76.5t-74.5 22.5h-36v-201h35q50 0 74.5 21t24.5 81z" />
    <glyph glyph-name="S" unicode="S" horiz-adv-x="498" 
d="M468 185q0 -195 -227 -195q-105 0 -206 42v156h105v-67q43 -15 91 -15q94 0 94 75q0 38 -22.5 58t-67.5 37l-43 16q-33 12 -54.5 23t-49.5 33t-43 57t-15 81q0 92 62 141.5t164 49.5q113 0 207 -36v-156h-105v64q-56 14 -96 14q-89 0 -89 -66q0 -23 13.5 -40t30 -25.5
t46.5 -20.5l46 -18q34 -13 58 -27t49.5 -37.5t38.5 -59.5t13 -84z" />
    <glyph glyph-name="T" unicode="T" horiz-adv-x="538" 
d="M528 485h-105v62h-84v-442h80v-105h-300v105h80v442h-84v-62h-105v182h518v-182z" />
    <glyph glyph-name="U" unicode="U" horiz-adv-x="620" 
d="M610 562h-60v-335q0 -237 -240 -237q-109 0 -174.5 55.5t-65.5 181.5v335h-60v105h260v-105h-60v-329q0 -123 100 -123t100 122v330h-60v105h260v-105z" />
    <glyph glyph-name="V" unicode="V" horiz-adv-x="597" 
d="M587 562h-50l-156 -562h-165l-156 562h-50v105h246v-105h-52l96 -372l94 372h-52v105h245v-105z" />
    <glyph glyph-name="W" unicode="W" horiz-adv-x="956" 
d="M946 562h-50l-135 -562h-170l-113 433l-113 -433h-170l-135 562h-50v105h250v-105h-52l79 -372l118 477h222v-105h-50l95 -372l77 372h-52v105h249v-105z" />
    <glyph glyph-name="X" unicode="X" horiz-adv-x="548" 
d="M538 0h-248v105h49l-59 148l-106 -253h-164v105h55l110 230l-116 227h-49v105h248v-105h-42l59 -124l107 229h156v-105h-51l-108 -202l115 -255h44v-105z" />
    <glyph glyph-name="Y" unicode="Y" horiz-adv-x="530" 
d="M520 562h-51l-138 -332v-125h80v-105h-300v105h80v125l-130 332h-51v105h246v-105h-49l57 -168l98 273h158v-105z" />
    <glyph glyph-name="Z" unicode="Z" horiz-adv-x="506" 
d="M491 667l-266 -552h148v73h105v-188h-463l265 552h-147v-67h-105v182h463z" />
    <glyph glyph-name="bracketleft" unicode="[" horiz-adv-x="284" 
d="M294 -82h-234v829h234v-100h-94v-629h94v-100z" />
    <glyph glyph-name="backslash" unicode="\" horiz-adv-x="336" 
d="M323 10l-133 -25l-177 672l133 25z" />
    <glyph glyph-name="bracketright" unicode="]" horiz-adv-x="284" 
d="M224 -82h-234v100h94v629h-94v100h234v-829z" />
    <glyph glyph-name="asciicircum" unicode="^" horiz-adv-x="441" 
d="M411 387h-120l-72 171l-69 -171h-120l126 280h130z" />
    <glyph glyph-name="underscore" unicode="_" horiz-adv-x="427" 
d="M427 -230h-427v115h427v-115z" />
    <glyph glyph-name="grave" unicode="`" horiz-adv-x="254" 
d="M234 551h-135l-79 146h150z" />
    <glyph glyph-name="a" unicode="a" horiz-adv-x="505" 
d="M495 8q-39 -18 -89 -18q-72 0 -89 59q-61 -59 -143 -59q-62 0 -103 34t-41 106q0 160 200 160h70v15q0 60 -60 60q-22 0 -72 -10v-45h-105v132q117 38 201 38q171 0 171 -165v-180q0 -30 23 -30q15 0 37 8v-105zM300 129v81h-53q-77 0 -77 -62q0 -53 51 -53q30 0 79 34z
" />
    <glyph glyph-name="b" unicode="b" horiz-adv-x="536" 
d="M496 242q0 -252 -179 -252q-68 0 -120 41l-17 -31h-110v592h-60v105h195v-258q19 14 31.5 21t35.5 13.5t52 6.5q75 0 123.5 -57t48.5 -181zM356 243q0 75 -20 98.5t-56 23.5q-35 0 -75 -33v-204q40 -26 81 -26q34 0 52 29t18 112z" />
    <glyph glyph-name="c" unicode="c" horiz-adv-x="456" 
d="M426 30q-87 -40 -172 -40q-42 0 -78 12t-67.5 38t-50 74.5t-18.5 115.5q0 70 19.5 120.5t52 77.5t69.5 39.5t79 12.5q88 0 166 -38v-152h-105v70q-40 5 -48 5q-41 0 -67 -32.5t-26 -99.5q0 -66 24 -97t62 -31q31 0 55 8v73h105v-156z" />
    <glyph glyph-name="d" unicode="d" horiz-adv-x="536" 
d="M526 8q-39 -18 -89 -18q-69 0 -88 58q-56 -58 -136 -58q-78 0 -125.5 58t-47.5 189q0 68 17 117.5t45 75.5t58.5 38t63.5 12q68 0 107 -37v149h-60v105h195v-562q0 -30 23 -30q15 0 37 8v-105zM331 140v198q-37 27 -71 27q-39 0 -59.5 -27.5t-20.5 -99.5q0 -78 17.5 -107
t51.5 -29q37 0 82 38z" />
    <glyph glyph-name="e" unicode="e" horiz-adv-x="488" 
d="M453 180h-272q4 -36 25.5 -56.5t59.5 -20.5q55 0 132 48l47 -93q-28 -21 -46.5 -32.5t-56.5 -23.5t-82 -12q-100 0 -160 57.5t-60 185.5q0 120 56 183.5t154 63.5q105 0 154 -72t49 -228zM311 266q0 114 -61 114q-36 0 -51 -27.5t-18 -86.5h130z" />
    <glyph glyph-name="f" unicode="f" horiz-adv-x="357" 
d="M347 526h-95v65q-2 0 -7.5 0.5t-9.5 0.5q-30 0 -30 -48v-74h70v-105h-70v-260h70v-105h-265v105h60v260h-60v105h60v87q0 74 39 112t111 38q61 0 127 -29v-152z" />
    <glyph glyph-name="g" unicode="g" horiz-adv-x="470" 
d="M460 -59q0 -161 -222 -161q-106 0 -162 32t-56 91q0 74 71 107q-45 25 -45 79q0 56 51 87q-64 45 -64 134q0 83 51.5 126.5t146.5 43.5q26 0 56.5 -5t39.5 -5h133v-105h-51q20 -25 20 -65q0 -77 -52 -118.5t-146 -41.5q-29 0 -54 7q-8 -12 -8 -21q0 -15 9.5 -20.5
t31.5 -8.5l91 -10q74 -8 116.5 -40.5t42.5 -105.5zM320 -73q0 23 -12.5 33t-40.5 13l-88 11q-20 -27 -20 -55q0 -29 19 -42.5t63 -13.5q79 0 79 54zM286 310q0 77 -55 77t-55 -77t55 -77q28 0 41.5 16.5t13.5 60.5z" />
    <glyph glyph-name="h" unicode="h" horiz-adv-x="536" 
d="M526 8q-39 -18 -89 -18q-106 0 -106 120v190q0 50 -47 50q-36 0 -79 -34v-211h60v-105h-255v105h60v487h-60v105h195v-281q66 64 136 64q57 0 91 -36t34 -106v-203q0 -30 23 -30q20 0 37 8v-105z" />
    <glyph glyph-name="i" unicode="i" horiz-adv-x="275" 
d="M265 8q-39 -18 -89 -18q-106 0 -106 120v255h-60v105h195v-335q0 -30 23 -30q19 0 37 8v-105zM205 532h-135v135h135v-135z" />
    <glyph glyph-name="j" unicode="j" horiz-adv-x="280" 
d="M210 28q0 -55 -13.5 -97t-38 -69t-50 -43t-59.5 -29l-49 93q34 23 54.5 57.5t20.5 97.5v327h-65v105h200v-442zM210 532h-135v135h135v-135z" />
    <glyph glyph-name="k" unicode="k" horiz-adv-x="505" 
d="M255 0h-245v105h60v487h-60v105h195v-592h50v-105zM495 0h-147l-142 256l142 214h147v-105h-63l-72 -104l85 -156h50v-105z" />
    <glyph glyph-name="l" unicode="l" horiz-adv-x="275" 
d="M265 8q-39 -18 -89 -18q-106 0 -106 120v482h-60v105h195v-562q0 -30 23 -30q17 0 37 8v-105z" />
    <glyph glyph-name="m" unicode="m" horiz-adv-x="797" 
d="M787 8q-39 -18 -89 -18q-106 0 -106 120v190q0 50 -47 50q-39 0 -79 -34v-211h60v-105h-195v300q0 50 -47 50q-33 0 -79 -34v-211h60v-105h-255v105h60v260h-60v105h195v-54q66 64 136 64q86 0 114 -74q38 38 70 56t77 18q57 0 91 -36t34 -106v-203q0 -30 23 -30
q15 0 37 8v-105z" />
    <glyph glyph-name="n" unicode="n" horiz-adv-x="536" 
d="M526 8q-39 -18 -89 -18q-106 0 -106 120v190q0 50 -47 50q-36 0 -79 -34v-211h60v-105h-255v105h60v260h-60v105h195v-54q64 64 136 64q57 0 91 -36t34 -106v-203q0 -30 23 -30q14 0 37 8v-105z" />
    <glyph glyph-name="o" unicode="o" horiz-adv-x="532" 
d="M497 235q0 -121 -64 -183t-167 -62q-106 0 -168.5 61.5t-62.5 183.5t62 183.5t169 61.5q104 0 167.5 -62t63.5 -183zM357 235q0 133 -91 133t-91 -133q0 -132 91 -132t91 132z" />
    <glyph glyph-name="p" unicode="p" horiz-adv-x="536" 
d="M496 242q0 -252 -174 -252q-66 0 -117 35v-120h90v-105h-285v105h60v460h-60v105h195v-35q49 45 119 45q75 0 123.5 -57t48.5 -181zM356 243q0 75 -20 98.5t-56 23.5q-35 0 -75 -33v-201q40 -26 81 -26q34 0 52 27.5t18 110.5z" />
    <glyph glyph-name="q" unicode="q" horiz-adv-x="536" 
d="M526 -200h-275v105h80v134q-49 -49 -118 -49q-78 0 -125.5 58t-47.5 189q0 68 17 117.5t45 75.5t58.5 38t63.5 12q67 0 107 -40v30h195v-105h-60v-460h60v-105zM331 143v194q-34 28 -71 28q-39 0 -59.5 -27.5t-20.5 -99.5q0 -78 17.5 -105.5t51.5 -27.5q41 0 82 38z" />
    <glyph glyph-name="r" unicode="r" horiz-adv-x="351" 
d="M341 344q-39 0 -77.5 -19.5t-58.5 -47.5v-172h80v-105h-275v105h60v260h-60v105h195v-66q44 76 136 76v-136z" />
    <glyph glyph-name="s" unicode="s" horiz-adv-x="408" 
d="M383 143q0 -153 -173 -153q-93 0 -179 37v139h105v-57q40 -8 62 -8q47 0 47 32q0 16 -13 24.5t-41 15.5l-38 9q-123 28 -123 142q0 83 49.5 119.5t126.5 36.5q91 0 166 -30v-140h-105v54q-27 5 -55 5q-44 0 -44 -31q0 -16 12.5 -23.5t39.5 -13.5l42 -10q121 -28 121 -148
z" />
    <glyph glyph-name="t" unicode="t" horiz-adv-x="285" 
d="M275 11q-39 -21 -99 -21q-106 0 -106 120v255h-60v105h60l20 130h115v-130h70v-105h-70v-227q0 -30 23 -30q17 0 47 10v-107z" />
    <glyph glyph-name="u" unicode="u" horiz-adv-x="536" 
d="M526 8q-39 -18 -89 -18q-75 0 -91 69q-62 -69 -153 -69q-58 0 -90.5 36t-32.5 106v233h-60v105h195v-307q0 -53 42 -53q38 0 84 39v216h-60v105h195v-335q0 -30 23 -30q16 0 37 8v-105z" />
    <glyph glyph-name="v" unicode="v" horiz-adv-x="500" 
d="M490 365h-53l-98 -365h-178l-98 365h-53v105h240v-105h-50l50 -211l75 316h165v-105z" />
    <glyph glyph-name="w" unicode="w" horiz-adv-x="803" 
d="M793 365h-51l-87 -365h-185l-68 251l-69 -251h-185l-88 365h-50v105h240v-105h-48l44 -211l85 316h222v-105h-50l57 -211l63 316h170v-105z" />
    <glyph glyph-name="x" unicode="x" horiz-adv-x="497" 
d="M487 0h-240v105h31l-29 66l-76 -171h-163v105h49l63 138l-60 122h-52v105h240v-105h-26l25 -51l75 156h163v-105h-51l-60 -122l63 -138h48v-105z" />
    <glyph glyph-name="y" unicode="y" horiz-adv-x="493" 
d="M483 365h-50l-108 -316q-21 -62 -41 -102.5t-50 -75.5t-71.5 -54.5t-98.5 -26.5l-27 98q106 35 132 108l12 35l-120 334h-51v105h240v-105h-48l47 -151l74 256h160v-105z" />
    <glyph glyph-name="z" unicode="z" horiz-adv-x="457" 
d="M432 470l-184 -355h74v71h105v-186h-402l181 355h-71v-65h-105v180h402z" />
    <glyph glyph-name="braceleft" unicode="{" horiz-adv-x="265" 
d="M275 -83q-109 0 -163 34t-54 131v133q0 59 -48 72v90q48 13 48 72v133q0 97 54 131t163 34v-91q-77 -5 -77 -79v-110q0 -64 -21 -92.5t-62 -42.5q41 -14 62 -42.5t21 -92.5v-110q0 -41 20 -59t57 -20v-91z" />
    <glyph glyph-name="bar" unicode="|" horiz-adv-x="255" 
d="M195 -82h-135v829h135v-829z" />
    <glyph glyph-name="braceright" unicode="}" horiz-adv-x="265" 
d="M255 287q-48 -13 -48 -72v-133q0 -97 -54 -131t-163 -34v91q77 5 77 79v110q0 64 21 92.5t62 42.5q-41 14 -62 42.5t-21 92.5v110q0 41 -20 59t-57 20v91q109 0 163 -34t54 -131v-133q0 -59 48 -72v-90z" />
    <glyph glyph-name="asciitilde" unicode="~" horiz-adv-x="418" 
d="M388 315q-14 -41 -43 -73t-71 -32q-34 0 -69.5 13.5t-55.5 13.5q-32 0 -60 -36l-59 53q14 43 44.5 74t74.5 31q37 0 70 -13.5t50 -13.5q33 0 60 36z" />
    <glyph glyph-name="uni00A0" unicode="&#xa0;" horiz-adv-x="250" 
 />
    <glyph glyph-name="exclamdown" unicode="&#xa1;" horiz-adv-x="270" 
d="M210 -200h-150v250l10 208h130l10 -208v-250zM210 320h-150v150h150v-150z" />
    <glyph glyph-name="cent" unicode="&#xa2;" horiz-adv-x="456" 
d="M426 30q-61 -28 -117 -36v-110h-105v110q-72 13 -118 70t-46 166q0 111 46 169.5t118 74.5v112h105v-109q58 -6 117 -35v-152h-105v70q-40 5 -48 5q-41 0 -67 -32.5t-26 -99.5q0 -66 24 -97t62 -31q31 0 55 8v73h105v-156z" />
    <glyph glyph-name="sterling" unicode="&#xa3;" horiz-adv-x="480" 
d="M450 0h-420v99q70 76 70 186h-70v105h70v57q0 102 54 151t137 49q87 0 159 -33v-149h-105v62q-22 5 -46 5q-64 0 -64 -84v-58h125v-105h-125q0 -129 -49 -175h159v68h105v-178z" />
    <glyph glyph-name="currency" unicode="&#xa4;" horiz-adv-x="560" 
d="M474 167l-42 -42l-75 74q-35 -22 -77 -22t-77 22l-75 -75l-42 42l74 74q-25 36 -25 82q0 42 22 77l-71 72l42 42l71 -71q38 25 81 25q45 0 81 -25l71 70l42 -42l-71 -72q21 -33 21 -76q0 -44 -24 -81zM364 322q0 38 -24 62.5t-60 24.5t-60.5 -24.5t-24.5 -62.5
t24.5 -62.5t60.5 -24.5t60 24.5t24 62.5z" />
    <glyph glyph-name="yen" unicode="&#xa5;" horiz-adv-x="530" 
d="M520 532h-51l-76 -167h83v-90h-124l-19 -40h143v-90h-145v-40h80v-105h-300v105h80v40h-145v90h143l-17 40h-126v90h87l-72 167h-51v105h246v-105h-49l57 -138l98 243h158v-105z" />
    <glyph glyph-name="brokenbar" unicode="&#xa6;" horiz-adv-x="255" 
d="M195 398h-135v349h135v-349zM195 -82h-135v349h135v-349z" />
    <glyph glyph-name="section" unicode="&#xa7;" horiz-adv-x="433" 
d="M403 323q0 -77 -73 -109q58 -33 58 -111q0 -143 -173 -143q-80 0 -170 36v140h105v-57q32 -8 55 -8q45 0 45 27q0 17 -12 26t-42 20l-45 17q-31 12 -46 19t-36 21.5t-30 35t-9 49.5q0 73 74 104q-59 36 -59 111q0 74 50.5 110t125.5 36q82 0 167 -29v-141h-105v52
q-37 7 -56 7q-44 0 -44 -30q0 -14 11 -21.5t41 -17.5l59 -21q50 -18 79.5 -45t29.5 -78zM280 290q0 26 -35 39l-71 27q-21 -18 -21 -38q0 -14 10 -22.5t32 -16.5l65 -25q20 14 20 36z" />
    <glyph glyph-name="dieresis" unicode="&#xa8;" horiz-adv-x="365" 
d="M345 562h-125v125h125v-125zM145 562h-125v125h125v-125z" />
    <glyph glyph-name="copyright" unicode="&#xa9;" horiz-adv-x="798" 
d="M763 334q0 -91 -30 -162.5t-81 -114.5t-115.5 -65t-137.5 -22t-137.5 22t-115.5 65t-81 114.5t-30 162.5q0 90 30 161t81 114t115.5 65.5t137.5 22.5t137.5 -22t115.5 -65t81 -114t30 -162zM618 334q0 123 -60 185t-159 62t-159 -62t-60 -185t60 -185.5t159 -62.5
q103 0 161 61.5t58 186.5zM542 177q-68 -50 -135 -50q-81 0 -128.5 50.5t-47.5 155.5q0 97 49 152t130 55q68 0 132 -45l-33 -73q-52 32 -91 32q-32 0 -56 -30t-24 -91q0 -119 77 -119q42 0 91 35z" />
    <glyph glyph-name="ordfeminine" unicode="&#xaa;" horiz-adv-x="415" 
d="M380 273h-128v32q-40 -40 -91 -40q-53 0 -89.5 29.5t-36.5 92.5q0 39 14 65.5t39.5 39.5t53 18t63.5 5h47v12q0 20 -8.5 29t-29.5 9q-40 0 -127 -33l-27 96q104 49 173 49q147 0 147 -142v-262zM380 0h-325v120h325v-120zM252 384v62h-33q-52 0 -52 -45q0 -37 36 -37
q22 0 49 20z" />
    <glyph glyph-name="guillemotleft" unicode="&#xab;" horiz-adv-x="504" 
d="M484 118l-95 -58l-155 215l155 215l95 -58l-106 -157zM270 118l-95 -58l-155 215l155 215l95 -58l-106 -157z" />
    <glyph glyph-name="logicalnot" unicode="&#xac;" horiz-adv-x="487" 
d="M457 117h-114v130h-313v110h427v-240z" />
    <glyph glyph-name="uni00AD" unicode="&#xad;" horiz-adv-x="277" 
d="M247 227h-217v120h217v-120z" />
    <glyph glyph-name="registered" unicode="&#xae;" horiz-adv-x="798" 
d="M763 334q0 -91 -30 -162.5t-81 -114.5t-115.5 -65t-137.5 -22t-137.5 22t-115.5 65t-81 114.5t-30 162.5q0 90 30 161t81 114t115.5 65.5t137.5 22.5t137.5 -22t115.5 -65t81 -114t30 -162zM618 334q0 123 -60 185t-159 62t-159 -62t-60 -185t60 -185.5t159 -62.5
q103 0 161 61.5t58 186.5zM568 167l-94 -38l-91 154h-4v-146h-104v401h121q150 0 150 -123q0 -83 -65 -115zM439 410q0 26 -11 36.5t-37 10.5h-12v-95h11q26 0 37.5 9t11.5 39z" />
    <glyph glyph-name="macron" unicode="&#xaf;" horiz-adv-x="297" 
d="M277 576h-257v111h257v-111z" />
    <glyph glyph-name="degree" unicode="&#xb0;" horiz-adv-x="436" 
d="M411 501q0 -50 -17.5 -86t-46.5 -54.5t-61 -27t-68 -8.5t-68 8.5t-61 27t-46.5 54.5t-17.5 86t17.5 86t46.5 54.5t61 27t68 8.5t68 -8.5t61 -27t46.5 -54.5t17.5 -86zM271 501q0 43 -14.5 58t-38.5 15q-53 0 -53 -73t53 -73t53 73z" />
    <glyph glyph-name="plusminus" unicode="&#xb1;" horiz-adv-x="431" 
d="M401 257h-128v-100h-114v100h-129v110h129v139h114v-139h128v-110zM401 0h-371v120h371v-120z" />
    <glyph glyph-name="twosuperior" unicode="&#xb2;" horiz-adv-x="288" 
d="M271 291h-255q0 16 2 38q4 79 60 132l35 34q32 30 41.5 43.5t9.5 31.5q0 33 -41 33q-16 0 -38 -7v-45h-64v96q56 27 118 27q59 0 94 -25.5t35 -77.5q0 -36 -19 -65t-57 -64l-34 -32q-26 -24 -27 -45h76v42h64v-116z" />
    <glyph glyph-name="threesuperior" unicode="&#xb3;" horiz-adv-x="272" 
d="M16 307v100h64v-46q23 -7 40 -7q45 0 45 43q0 29 -17 40t-50 11h-26v68h26q27 0 42 14.5t15 36.5q0 36 -38 36q-21 0 -36 -5v-47h-64v99q62 24 113 24q58 0 90.5 -23.5t32.5 -69.5q0 -71 -66 -92q36 -5 57 -29.5t21 -63.5q0 -112 -131 -112q-67 0 -118 23z" />
    <glyph glyph-name="acute" unicode="&#xb4;" horiz-adv-x="254" 
d="M234 697l-79 -146h-135l64 146h150z" />
    <glyph glyph-name="mu" unicode="&#xb5;" horiz-adv-x="536" 
d="M526 8q-39 -18 -89 -18q-75 0 -91 69q-58 -65 -141 -69v-85h90v-105h-285v105h60v460h-60v105h195v-307q0 -53 42 -53q38 0 84 39v216h-60v105h195v-335q0 -30 23 -30q17 0 37 8v-105z" />
    <glyph glyph-name="paragraph" unicode="&#xb6;" horiz-adv-x="599" 
d="M324 0h-215v105h80v187q-75 9 -117 57t-42 125q0 97 61.5 145t158.5 48h74v-667zM589 0h-195v667h195v-105h-60v-457h60v-105z" />
    <glyph glyph-name="periodcentered" unicode="&#xb7;" horiz-adv-x="265" 
d="M205 265h-145v145h145v-145z" />
    <glyph glyph-name="cedilla" unicode="&#xb8;" horiz-adv-x="185" 
d="M165 -165l-27 -116l-96 16l17 90h-39v145h145v-135z" />
    <glyph glyph-name="onesuperior" unicode="&#xb9;" horiz-adv-x="231" 
d="M24 291v68h54v205l-55 -11l-8 61l93 53h69v-308h54v-68h-207z" />
    <glyph glyph-name="ordmasculine" unicode="&#xba;" horiz-adv-x="472" 
d="M437 471q0 -100 -57.5 -153t-143.5 -53t-143.5 53t-57.5 153t56.5 153t144.5 53q85 0 143 -53t58 -153zM417 0h-362v120h362v-120zM293 471q0 100 -57 100q-29 0 -43 -23t-14 -77q0 -100 57 -100t57 100z" />
    <glyph glyph-name="guillemotright" unicode="&#xbb;" horiz-adv-x="504" 
d="M484 275l-155 -215l-95 58l106 157l-106 157l95 58zM270 275l-155 -215l-95 58l106 157l-106 157l95 58z" />
    <glyph glyph-name="onequarter" unicode="&#xbc;" horiz-adv-x="799" 
d="M647 0v62h-156v77l152 237h102v-237h44v-77h-44v-62h-98zM570 139h78v124zM19 291v68h54v205l-55 -11l-8 61l93 53h69v-308h54v-68h-207zM235 3l178 675l112 -19l-178 -674z" />
    <glyph glyph-name="onehalf" unicode="&#xbd;" horiz-adv-x="801" 
d="M19 291v68h54v205l-55 -11l-8 61l93 53h69v-308h54v-68h-207zM235 3l178 675l112 -19l-178 -674zM784 0h-255q0 16 2 38q4 79 60 132l35 34q32 30 41.5 43.5t9.5 31.5q0 33 -41 33q-16 0 -38 -7v-45h-64v96q56 27 118 27q59 0 94 -25.5t35 -77.5q0 -36 -19 -65t-57 -64
l-34 -32q-26 -24 -27 -45h76v42h64v-116z" />
    <glyph glyph-name="threequarters" unicode="&#xbe;" horiz-adv-x="822" 
d="M259 3l177 675l112 -19l-178 -674zM670 0v62h-156v77l152 237h102v-237h44v-77h-44v-62h-98zM593 139h78v124zM16 307v100h64v-46q23 -7 40 -7q45 0 45 43q0 29 -17 40t-50 11h-26v68h26q27 0 42 14.5t15 36.5q0 36 -38 36q-21 0 -36 -5v-47h-64v99q62 24 113 24
q58 0 90.5 -23.5t32.5 -69.5q0 -71 -66 -92q36 -5 57 -29.5t21 -63.5q0 -112 -131 -112q-67 0 -118 23z" />
    <glyph glyph-name="questiondown" unicode="&#xbf;" horiz-adv-x="447" 
d="M412 -174q-100 -36 -184 -36q-83 0 -138 39t-55 131q0 80 58 140l26 26t27.5 29.5t15 27t8.5 37.5q0 10 -2 38h140q3 -32 3 -49q0 -53 -20.5 -88.5t-60.5 -75.5q-23 -23 -34 -41t-11 -43t16.5 -40.5t48.5 -15.5q24 0 57 9v68h105v-156zM313 320h-150v150h150v-150z" />
    <glyph glyph-name="Agrave" unicode="&#xc0;" horiz-adv-x="612" 
d="M602 0h-165l-43 162h-176l-15 -57h50v-105h-243v105h51l129 457h-60v105h262l160 -562h50v-105zM369 277l-64 249l-63 -249h127zM365 697h-135l-69 116h150z" />
    <glyph glyph-name="Aacute" unicode="&#xc1;" horiz-adv-x="612" 
d="M602 0h-165l-43 162h-176l-15 -57h50v-105h-243v105h51l129 457h-60v105h262l160 -562h50v-105zM369 277l-64 249l-63 -249h127zM434 813l-69 -116h-135l54 116h150z" />
    <glyph glyph-name="Acircumflex" unicode="&#xc2;" horiz-adv-x="612" 
d="M602 0h-165l-43 162h-176l-15 -57h50v-105h-243v105h51l129 457h-60v105h262l160 -562h50v-105zM369 277l-64 249l-63 -249h127zM485 697h-159l-20 39l-22 -39h-157l85 116h188z" />
    <glyph glyph-name="Atilde" unicode="&#xc3;" horiz-adv-x="612" 
d="M602 0h-165l-43 162h-176l-15 -57h50v-105h-243v105h51l129 457h-60v105h262l160 -562h50v-105zM369 277l-64 249l-63 -249h127zM463 792q-14 -40 -41 -67.5t-62 -27.5q-27 0 -55 12t-44 12q-36 0 -65 -24l-46 49q15 37 42 66t65 29q31 0 58 -12t41 -12q34 0 61 23z" />
    <glyph glyph-name="Adieresis" unicode="&#xc4;" horiz-adv-x="612" 
d="M602 0h-165l-43 162h-176l-15 -57h50v-105h-243v105h51l129 457h-60v105h262l160 -562h50v-105zM369 277l-64 249l-63 -249h127zM469 697h-125v125h125v-125zM269 697h-125v125h125v-125z" />
    <glyph glyph-name="Aring" unicode="&#xc5;" horiz-adv-x="612" 
d="M602 0h-165l-43 162h-176l-15 -57h50v-105h-243v105h51l137 486q-35 31 -35 88t36 88.5t107 31.5t107 -31.5t36 -88.5t-35 -88l138 -486h50v-105zM369 277l-64 249l-63 -249h127zM337 679q0 49 -31 49t-31 -49t31 -49t31 49z" />
    <glyph glyph-name="AE" unicode="&#xc6;" horiz-adv-x="806" 
d="M786 0h-389v162h-161l-24 -57h50v-105h-252v105h51l203 457h-90v105h612v-182h-105v67h-144v-155h186v-115h-186v-167h144v73h105v-188zM397 277v286l-118 -286h118z" />
    <glyph glyph-name="Ccedilla" unicode="&#xc7;" horiz-adv-x="551" 
d="M521 38q-48 -24 -92 -36t-113 -12q-128 0 -202 82.5t-74 260.5q0 164 77 254t205 90q102 0 199 -42v-150h-105v63q-44 13 -89 13q-62 0 -102 -58t-40 -170q0 -225 141 -225q45 0 90 15v65h105v-150zM395 -165l-27 -116l-96 16l17 90h-39v145h145v-135z" />
    <glyph glyph-name="Egrave" unicode="&#xc8;" horiz-adv-x="509" 
d="M489 0h-479v105h60v457h-60v105h479v-182h-105v67h-174v-155h216v-115h-216v-167h174v73h105v-188zM344 697h-135l-69 116h150z" />
    <glyph glyph-name="Eacute" unicode="&#xc9;" horiz-adv-x="509" 
d="M489 0h-479v105h60v457h-60v105h479v-182h-105v67h-174v-155h216v-115h-216v-167h174v73h105v-188zM384 813l-69 -116h-135l54 116h150z" />
    <glyph glyph-name="Ecircumflex" unicode="&#xca;" horiz-adv-x="509" 
d="M489 0h-479v105h60v457h-60v105h479v-182h-105v67h-174v-155h216v-115h-216v-167h174v73h105v-188zM443 697h-159l-20 39l-22 -39h-157l85 116h188z" />
    <glyph glyph-name="Edieresis" unicode="&#xcb;" horiz-adv-x="509" 
d="M489 0h-479v105h60v457h-60v105h479v-182h-105v67h-174v-155h216v-115h-216v-167h174v73h105v-188zM430 697h-125v125h125v-125zM230 697h-125v125h125v-125z" />
    <glyph glyph-name="Igrave" unicode="&#xcc;" horiz-adv-x="280" 
d="M270 0h-260v105h60v457h-60v105h260v-105h-60v-457h60v-105zM211 697h-135l-69 116h150z" />
    <glyph glyph-name="Iacute" unicode="&#xcd;" horiz-adv-x="280" 
d="M270 0h-260v105h60v457h-60v105h260v-105h-60v-457h60v-105zM274 813l-69 -116h-135l54 116h150z" />
    <glyph glyph-name="Icircumflex" unicode="&#xce;" horiz-adv-x="280" 
d="M270 0h-260v105h60v457h-60v105h260v-105h-60v-457h60v-105zM319 697h-159l-20 39l-22 -39h-157l85 116h188z" />
    <glyph glyph-name="Idieresis" unicode="&#xcf;" horiz-adv-x="280" 
d="M270 0h-260v105h60v457h-60v105h260v-105h-60v-457h60v-105zM303 697h-125v125h125v-125zM103 697h-125v125h125v-125z" />
    <glyph glyph-name="Eth" unicode="&#xd0;" horiz-adv-x="625" 
d="M585 333q0 -333 -337 -333h-238v105h60v177h-40v115h40v165h-60v105h255q147 0 233.5 -79.5t86.5 -254.5zM440 333q0 123 -46 171t-135 48h-49v-155h147v-115h-147v-167h35q100 0 147.5 49.5t47.5 168.5z" />
    <glyph glyph-name="Ntilde" unicode="&#xd1;" horiz-adv-x="646" 
d="M636 562h-60v-562h-140l-226 413v-308h60v-105h-260v105h60v457h-60v105h219l207 -376v271h-60v105h260v-105zM480 792q-14 -40 -41 -67.5t-62 -27.5q-27 0 -55 12t-44 12q-36 0 -65 -24l-46 49q15 37 42 66t65 29q31 0 58 -12t41 -12q34 0 61 23z" />
    <glyph glyph-name="Ograve" unicode="&#xd2;" horiz-adv-x="656" 
d="M621 334q0 -170 -80 -257t-213 -87t-213 87t-80 257t80 256.5t213 86.5t213 -86.5t80 -256.5zM476 334q0 117 -39.5 175t-108.5 58t-108.5 -58t-39.5 -175t39.5 -174t108.5 -57t108.5 57t39.5 174zM395 697h-135l-69 116h150z" />
    <glyph glyph-name="Oacute" unicode="&#xd3;" horiz-adv-x="656" 
d="M621 334q0 -170 -80 -257t-213 -87t-213 87t-80 257t80 256.5t213 86.5t213 -86.5t80 -256.5zM476 334q0 117 -39.5 175t-108.5 58t-108.5 -58t-39.5 -175t39.5 -174t108.5 -57t108.5 57t39.5 174zM454 813l-69 -116h-135l54 116h150z" />
    <glyph glyph-name="Ocircumflex" unicode="&#xd4;" horiz-adv-x="656" 
d="M621 334q0 -170 -80 -257t-213 -87t-213 87t-80 257t80 256.5t213 86.5t213 -86.5t80 -256.5zM476 334q0 117 -39.5 175t-108.5 58t-108.5 -58t-39.5 -175t39.5 -174t108.5 -57t108.5 57t39.5 174zM507 697h-159l-20 39l-22 -39h-157l85 116h188z" />
    <glyph glyph-name="Otilde" unicode="&#xd5;" horiz-adv-x="656" 
d="M621 334q0 -170 -80 -257t-213 -87t-213 87t-80 257t80 256.5t213 86.5t213 -86.5t80 -256.5zM476 334q0 117 -39.5 175t-108.5 58t-108.5 -58t-39.5 -175t39.5 -174t108.5 -57t108.5 57t39.5 174zM485 792q-14 -40 -41 -67.5t-62 -27.5q-27 0 -55 12t-44 12
q-36 0 -65 -24l-46 49q15 37 42 66t65 29q31 0 58 -12t41 -12q34 0 61 23z" />
    <glyph glyph-name="Odieresis" unicode="&#xd6;" horiz-adv-x="656" 
d="M521 697h-125v125h125v-125zM261 697h-125v125h125v-125zM621 334q0 -170 -80 -257t-213 -87t-213 87t-80 257t80 256.5t213 86.5t213 -86.5t80 -256.5zM476 334q0 117 -39.5 175t-108.5 58t-108.5 -58t-39.5 -175t39.5 -174t108.5 -57t108.5 57t39.5 174z" />
    <glyph glyph-name="multiply" unicode="&#xd7;" horiz-adv-x="431" 
d="M106 115l-76 78l106 107l-106 108l78 79l107 -107l108 107l77 -78l-107 -107l108 -108l-79 -79l-108 108z" />
    <glyph glyph-name="Oslash" unicode="&#xd8;" horiz-adv-x="656" 
d="M626 693l-77 -112q72 -88 72 -247q0 -170 -80 -257t-213 -87q-93 0 -159 41l-68 -98l-71 42l77 112q-72 90 -72 247q0 170 80 256.5t213 86.5q92 0 157 -40l67 98zM476 334q0 72 -15 121l-220 -319q33 -33 87 -33q68 0 108 57t40 174zM414 534q-35 33 -86 33
q-67 0 -107.5 -58t-40.5 -175q0 -64 15 -119z" />
    <glyph glyph-name="Ugrave" unicode="&#xd9;" horiz-adv-x="620" 
d="M610 562h-60v-335q0 -237 -240 -237q-109 0 -174.5 55.5t-65.5 181.5v335h-60v105h260v-105h-60v-329q0 -123 100 -123t100 122v330h-60v105h260v-105zM378 697h-135l-69 116h150z" />
    <glyph glyph-name="Uacute" unicode="&#xda;" horiz-adv-x="620" 
d="M610 562h-60v-335q0 -237 -240 -237q-109 0 -174.5 55.5t-65.5 181.5v335h-60v105h260v-105h-60v-329q0 -123 100 -123t100 122v330h-60v105h260v-105zM445 813l-69 -116h-135l54 116h150z" />
    <glyph glyph-name="Ucircumflex" unicode="&#xdb;" horiz-adv-x="620" 
d="M610 562h-60v-335q0 -237 -240 -237q-109 0 -174.5 55.5t-65.5 181.5v335h-60v105h260v-105h-60v-329q0 -123 100 -123t100 122v330h-60v105h260v-105zM489 697h-159l-20 39l-22 -39h-157l85 116h188z" />
    <glyph glyph-name="Udieresis" unicode="&#xdc;" horiz-adv-x="620" 
d="M610 562h-60v-335q0 -237 -240 -237q-109 0 -174.5 55.5t-65.5 181.5v335h-60v105h260v-105h-60v-329q0 -123 100 -123t100 122v330h-60v105h260v-105zM473 697h-125v125h125v-125zM273 697h-125v125h125v-125z" />
    <glyph glyph-name="Yacute" unicode="&#xdd;" horiz-adv-x="530" 
d="M520 562h-51l-138 -332v-125h80v-105h-300v105h80v125l-130 332h-51v105h246v-105h-49l57 -168l98 273h158v-105zM413 813l-69 -116h-135l54 116h150z" />
    <glyph glyph-name="Thorn" unicode="&#xde;" horiz-adv-x="519" 
d="M489 349q0 -60 -18.5 -103.5t-51.5 -67.5t-73.5 -35t-90.5 -11h-45v-132h-200v105h60v457h-60v105h200v-120h45q234 0 234 -198zM344 341q0 54 -23.5 76.5t-74.5 22.5h-36v-201h35q50 0 74.5 21t24.5 81z" />
    <glyph glyph-name="germandbls" unicode="&#xdf;" horiz-adv-x="562" 
d="M537 138q0 -81 -45.5 -114.5t-114.5 -33.5t-142 27v139h105v-52q12 -3 28 -3q31 0 31 31q0 22 -33 46l-34 25q-68 50 -68 118q0 31 8 59t15 41t22 36q28 45 28 79q0 56 -64 56q-68 0 -68 -83v-509h-195v105h60v260h-60v105h60v37q0 102 51 151t162 49q89 0 141.5 -44.5
t52.5 -115.5q0 -64 -34 -114q-5 -8 -15.5 -22l-15.5 -21t-9.5 -17.5t-4.5 -19.5q0 -14 8 -23.5t27 -23.5l36 -27q68 -51 68 -141z" />
    <glyph glyph-name="agrave" unicode="&#xe0;" horiz-adv-x="505" 
d="M495 8q-39 -18 -89 -18q-72 0 -89 59q-61 -59 -143 -59q-62 0 -103 34t-41 106q0 160 200 160h70v15q0 60 -60 60q-22 0 -72 -10v-45h-105v132q117 38 201 38q171 0 171 -165v-180q0 -30 23 -30q15 0 37 8v-105zM300 129v81h-53q-77 0 -77 -62q0 -53 51 -53q30 0 79 34z
M323 551h-135l-79 146h150z" />
    <glyph glyph-name="aacute" unicode="&#xe1;" horiz-adv-x="505" 
d="M495 8q-39 -18 -89 -18q-72 0 -89 59q-61 -59 -143 -59q-62 0 -103 34t-41 106q0 160 200 160h70v15q0 60 -60 60q-22 0 -72 -10v-45h-105v132q117 38 201 38q171 0 171 -165v-180q0 -30 23 -30q15 0 37 8v-105zM300 129v81h-53q-77 0 -77 -62q0 -53 51 -53q30 0 79 34z
M387 697l-79 -146h-135l64 146h150z" />
    <glyph glyph-name="acircumflex" unicode="&#xe2;" horiz-adv-x="505" 
d="M495 8q-39 -18 -89 -18q-72 0 -89 59q-61 -59 -143 -59q-62 0 -103 34t-41 106q0 160 200 160h70v15q0 60 -60 60q-22 0 -72 -10v-45h-105v132q117 38 201 38q171 0 171 -165v-180q0 -30 23 -30q15 0 37 8v-105zM300 129v81h-53q-77 0 -77 -62q0 -53 51 -53q30 0 79 34z
M420 551h-149l-30 69l-32 -69h-147l85 146h188z" />
    <glyph glyph-name="atilde" unicode="&#xe3;" horiz-adv-x="505" 
d="M495 8q-39 -18 -89 -18q-72 0 -89 59q-61 -59 -143 -59q-62 0 -103 34t-41 106q0 160 200 160h70v15q0 60 -60 60q-22 0 -72 -10v-45h-105v132q117 38 201 38q171 0 171 -165v-180q0 -30 23 -30q15 0 37 8v-105zM300 129v81h-53q-77 0 -77 -62q0 -53 51 -53q30 0 79 34z
M406 648q-14 -40 -41 -67.5t-62 -27.5q-27 0 -55 12t-44 12q-36 0 -65 -24l-46 49q15 37 42 66t65 29q31 0 58 -12t41 -12q34 0 61 23z" />
    <glyph glyph-name="adieresis" unicode="&#xe4;" horiz-adv-x="505" 
d="M495 8q-39 -18 -89 -18q-72 0 -89 59q-61 -59 -143 -59q-62 0 -103 34t-41 106q0 160 200 160h70v15q0 60 -60 60q-22 0 -72 -10v-45h-105v132q117 38 201 38q171 0 171 -165v-180q0 -30 23 -30q15 0 37 8v-105zM300 129v81h-53q-77 0 -77 -62q0 -53 51 -53q30 0 79 34z
M408 562h-125v125h125v-125zM208 562h-125v125h125v-125z" />
    <glyph glyph-name="aring" unicode="&#xe5;" horiz-adv-x="505" 
d="M495 8q-39 -18 -89 -18q-72 0 -89 59q-61 -59 -143 -59q-62 0 -103 34t-41 106q0 160 200 160h70v15q0 60 -60 60q-22 0 -72 -10v-45h-105v132q117 38 201 38q171 0 171 -165v-180q0 -30 23 -30q15 0 37 8v-105zM300 129v81h-53q-77 0 -77 -62q0 -53 51 -53q30 0 79 34z
M388 639q0 -57 -36 -88.5t-107 -31.5t-107 31.5t-36 88.5t36 88.5t107 31.5t107 -31.5t36 -88.5zM276 639q0 49 -31 49t-31 -49t31 -49t31 49z" />
    <glyph glyph-name="ae" unicode="&#xe6;" horiz-adv-x="748" 
d="M713 180h-272q4 -36 25.5 -56.5t59.5 -20.5q55 0 132 48l47 -93q-29 -22 -49 -34t-56.5 -23t-79.5 -11q-124 0 -169 81q-19 -25 -34.5 -39.5t-50.5 -28t-82 -13.5q-68 0 -111 33.5t-43 106.5q0 160 200 160h70v15q0 60 -60 60q-22 0 -72 -10v-45h-105v132q117 38 201 38
t123 -46q44 46 123 46q105 0 154 -72t49 -228zM300 174v36h-53q-77 0 -77 -62q0 -53 56 -53q34 0 54 24.5t20 54.5zM571 266q0 114 -61 114q-36 0 -51 -27.5t-18 -86.5h130z" />
    <glyph glyph-name="ccedilla" unicode="&#xe7;" horiz-adv-x="456" 
d="M426 30q-87 -40 -172 -40q-42 0 -78 12t-67.5 38t-50 74.5t-18.5 115.5q0 70 19.5 120.5t52 77.5t69.5 39.5t79 12.5q88 0 166 -38v-152h-105v70q-40 5 -48 5q-41 0 -67 -32.5t-26 -99.5q0 -66 24 -97t62 -31q31 0 55 8v73h105v-156zM320 -165l-27 -116l-96 16l17 90h-39
v145h145v-135z" />
    <glyph glyph-name="egrave" unicode="&#xe8;" horiz-adv-x="488" 
d="M453 180h-272q4 -36 25.5 -56.5t59.5 -20.5q55 0 132 48l47 -93q-28 -21 -46.5 -32.5t-56.5 -23.5t-82 -12q-100 0 -160 57.5t-60 185.5q0 120 56 183.5t154 63.5q105 0 154 -72t49 -228zM311 266q0 114 -61 114q-36 0 -51 -27.5t-18 -86.5h130zM314 551h-135l-79 146
h150z" />
    <glyph glyph-name="eacute" unicode="&#xe9;" horiz-adv-x="488" 
d="M453 180h-272q4 -36 25.5 -56.5t59.5 -20.5q55 0 132 48l47 -93q-28 -21 -46.5 -32.5t-56.5 -23.5t-82 -12q-100 0 -160 57.5t-60 185.5q0 120 56 183.5t154 63.5q105 0 154 -72t49 -228zM311 266q0 114 -61 114q-36 0 -51 -27.5t-18 -86.5h130zM385 697l-79 -146h-135
l64 146h150z" />
    <glyph glyph-name="ecircumflex" unicode="&#xea;" horiz-adv-x="488" 
d="M453 180h-272q4 -36 25.5 -56.5t59.5 -20.5q55 0 132 48l47 -93q-28 -21 -46.5 -32.5t-56.5 -23.5t-82 -12q-100 0 -160 57.5t-60 185.5q0 120 56 183.5t154 63.5q105 0 154 -72t49 -228zM311 266q0 114 -61 114q-36 0 -51 -27.5t-18 -86.5h130zM423 551h-149l-30 69
l-32 -69h-147l85 146h188z" />
    <glyph glyph-name="edieresis" unicode="&#xeb;" horiz-adv-x="488" 
d="M453 180h-272q4 -36 25.5 -56.5t59.5 -20.5q55 0 132 48l47 -93q-28 -21 -46.5 -32.5t-56.5 -23.5t-82 -12q-100 0 -160 57.5t-60 185.5q0 120 56 183.5t154 63.5q105 0 154 -72t49 -228zM311 266q0 114 -61 114q-36 0 -51 -27.5t-18 -86.5h130zM407 562h-125v125h125
v-125zM207 562h-125v125h125v-125z" />
    <glyph glyph-name="igrave" unicode="&#xec;" horiz-adv-x="275" 
d="M265 8q-39 -18 -89 -18q-106 0 -106 120v255h-60v105h195v-335q0 -30 23 -30q16 0 37 8v-105zM202 551h-135l-79 146h150z" />
    <glyph glyph-name="iacute" unicode="&#xed;" horiz-adv-x="275" 
d="M265 8q-39 -18 -89 -18q-106 0 -106 120v255h-60v105h195v-335q0 -30 23 -30q16 0 37 8v-105zM282 697l-79 -146h-135l64 146h150z" />
    <glyph glyph-name="icircumflex" unicode="&#xee;" horiz-adv-x="275" 
d="M265 8q-39 -18 -89 -18q-106 0 -106 120v255h-60v105h195v-335q0 -30 23 -30q16 0 37 8v-105zM317 551h-149l-30 69l-32 -69h-147l85 146h188z" />
    <glyph glyph-name="idieresis" unicode="&#xef;" horiz-adv-x="275" 
d="M290 562h-125v125h125v-125zM110 562h-125v125h125v-125zM265 8q-39 -18 -89 -18q-106 0 -106 120v255h-60v105h195v-335q0 -30 23 -30q16 0 37 8v-105z" />
    <glyph glyph-name="eth" unicode="&#xf0;" horiz-adv-x="519" 
d="M502 563l-42 -17q24 -87 24 -229q0 -98 -14.5 -163t-46 -100.5t-72 -49.5t-99.5 -14q-101 0 -159 53t-58 160q0 116 59 170t141 54q63 0 107 -41q0 67 -6 110l-115 -47v99l80 32q-22 19 -57 19q-25 0 -63 -9v-75h-105v161q85 31 183 31q111 0 163 -77l80 32v-99zM344 257
v29q-1 1 -8 6t-11 7.5t-12.5 7t-15.5 6.5t-18 4t-22 2q-83 0 -83 -108q0 -53 21.5 -81.5t60.5 -28.5q88 0 88 156z" />
    <glyph glyph-name="ntilde" unicode="&#xf1;" horiz-adv-x="536" 
d="M526 8q-39 -18 -89 -18q-106 0 -106 120v190q0 50 -47 50q-36 0 -79 -34v-211h60v-105h-255v105h60v260h-60v105h195v-54q64 64 136 64q57 0 91 -36t34 -106v-203q0 -30 23 -30q14 0 37 8v-105zM425 648q-14 -40 -41 -67.5t-62 -27.5q-27 0 -55 12t-44 12q-36 0 -65 -24
l-46 49q15 37 42 66t65 29q31 0 58 -12t41 -12q34 0 61 23z" />
    <glyph glyph-name="ograve" unicode="&#xf2;" horiz-adv-x="532" 
d="M497 235q0 -121 -64 -183t-167 -62q-106 0 -168.5 61.5t-62.5 183.5t62 183.5t169 61.5q104 0 167.5 -62t63.5 -183zM357 235q0 133 -91 133t-91 -133q0 -132 91 -132t91 132zM328 551h-135l-79 146h150z" />
    <glyph glyph-name="oacute" unicode="&#xf3;" horiz-adv-x="532" 
d="M497 235q0 -121 -64 -183t-167 -62q-106 0 -168.5 61.5t-62.5 183.5t62 183.5t169 61.5q104 0 167.5 -62t63.5 -183zM357 235q0 133 -91 133t-91 -133q0 -132 91 -132t91 132zM402 697l-79 -146h-135l64 146h150z" />
    <glyph glyph-name="ocircumflex" unicode="&#xf4;" horiz-adv-x="532" 
d="M497 235q0 -121 -64 -183t-167 -62q-106 0 -168.5 61.5t-62.5 183.5t62 183.5t169 61.5q104 0 167.5 -62t63.5 -183zM357 235q0 133 -91 133t-91 -133q0 -132 91 -132t91 132zM445 551h-149l-30 69l-32 -69h-147l85 146h188z" />
    <glyph glyph-name="otilde" unicode="&#xf5;" horiz-adv-x="532" 
d="M497 235q0 -121 -64 -183t-167 -62q-106 0 -168.5 61.5t-62.5 183.5t62 183.5t169 61.5q104 0 167.5 -62t63.5 -183zM357 235q0 133 -91 133t-91 -133q0 -132 91 -132t91 132zM418 648q-14 -40 -41 -67.5t-62 -27.5q-27 0 -55 12t-44 12q-36 0 -65 -24l-46 49
q15 37 42 66t65 29q31 0 58 -12t41 -12q34 0 61 23z" />
    <glyph glyph-name="odieresis" unicode="&#xf6;" horiz-adv-x="532" 
d="M497 235q0 -121 -64 -183t-167 -62q-106 0 -168.5 61.5t-62.5 183.5t62 183.5t169 61.5q104 0 167.5 -62t63.5 -183zM357 235q0 133 -91 133t-91 -133q0 -132 91 -132t91 132zM429 562h-125v125h125v-125zM229 562h-125v125h125v-125z" />
    <glyph glyph-name="divide" unicode="&#xf7;" horiz-adv-x="431" 
d="M401 247h-371v110h371v-110zM288 42h-145v145h145v-145zM288 417h-145v145h145v-145z" />
    <glyph glyph-name="oslash" unicode="&#xf8;" horiz-adv-x="532" 
d="M497 235q0 -121 -64 -183t-167 -62q-57 0 -102 19l-49 -75l-66 36l52 81q-66 64 -66 184q0 122 62.5 183.5t168.5 61.5q56 0 101 -19l47 73l69 -36l-52 -80q66 -64 66 -183zM302 360q-14 8 -36 8q-91 0 -91 -133q0 -35 6 -61zM357 235q0 40 -5 61l-122 -185q16 -8 36 -8
q91 0 91 132z" />
    <glyph glyph-name="ugrave" unicode="&#xf9;" horiz-adv-x="536" 
d="M526 8q-39 -18 -89 -18q-75 0 -91 69q-62 -69 -153 -69q-58 0 -90.5 36t-32.5 106v233h-60v105h195v-307q0 -53 42 -53q38 0 84 39v216h-60v105h195v-335q0 -30 23 -30q16 0 37 8v-105zM330 551h-135l-79 146h150z" />
    <glyph glyph-name="uacute" unicode="&#xfa;" horiz-adv-x="536" 
d="M526 8q-39 -18 -89 -18q-75 0 -91 69q-62 -69 -153 -69q-58 0 -90.5 36t-32.5 106v233h-60v105h195v-307q0 -53 42 -53q38 0 84 39v216h-60v105h195v-335q0 -30 23 -30q16 0 37 8v-105zM412 697l-79 -146h-135l64 146h150z" />
    <glyph glyph-name="ucircumflex" unicode="&#xfb;" horiz-adv-x="536" 
d="M526 8q-39 -18 -89 -18q-75 0 -91 69q-62 -69 -153 -69q-58 0 -90.5 36t-32.5 106v233h-60v105h195v-307q0 -53 42 -53q38 0 84 39v216h-60v105h195v-335q0 -30 23 -30q16 0 37 8v-105zM447 551h-149l-30 69l-32 -69h-147l85 146h188z" />
    <glyph glyph-name="udieresis" unicode="&#xfc;" horiz-adv-x="536" 
d="M526 8q-39 -18 -89 -18q-75 0 -91 69q-62 -69 -153 -69q-58 0 -90.5 36t-32.5 106v233h-60v105h195v-307q0 -53 42 -53q38 0 84 39v216h-60v105h195v-335q0 -30 23 -30q16 0 37 8v-105zM431 562h-125v125h125v-125zM231 562h-125v125h125v-125z" />
    <glyph glyph-name="yacute" unicode="&#xfd;" horiz-adv-x="493" 
d="M483 365h-50l-108 -316q-21 -62 -41 -102.5t-50 -75.5t-71.5 -54.5t-98.5 -26.5l-27 98q106 35 132 108l12 35l-120 334h-51v105h240v-105h-48l47 -151l74 256h160v-105zM397 697l-79 -146h-135l64 146h150z" />
    <glyph glyph-name="thorn" unicode="&#xfe;" horiz-adv-x="536" 
d="M496 242q0 -252 -174 -252q-66 0 -117 35v-120h90v-105h-285v105h60v687h-60v105h195v-262q49 45 119 45q75 0 123.5 -57t48.5 -181zM356 243q0 75 -20 98.5t-56 23.5q-35 0 -75 -33v-201q40 -26 81 -26q34 0 52 27.5t18 110.5z" />
    <glyph glyph-name="ydieresis" unicode="&#xff;" horiz-adv-x="493" 
d="M483 365h-50l-108 -316q-21 -62 -41 -102.5t-50 -75.5t-71.5 -54.5t-98.5 -26.5l-27 98q106 35 132 108l12 35l-120 334h-51v105h240v-105h-48l47 -151l74 256h160v-105zM409 562h-125v125h125v-125zM209 562h-125v125h125v-125z" />
    <glyph glyph-name="dotlessi" unicode="&#x131;" horiz-adv-x="275" 
d="M265 8q-39 -18 -89 -18q-106 0 -106 120v255h-60v105h195v-335q0 -30 23 -30q16 0 37 8v-105z" />
    <glyph glyph-name="Lslash" unicode="&#x141;" horiz-adv-x="460" 
d="M440 0h-430v105h60v158l-40 -15v109l40 15v190h-60v105h280v-105h-80v-138l142 53v-109l-142 -53v-190h125v63h105v-188z" />
    <glyph glyph-name="lslash" unicode="&#x142;" horiz-adv-x="275" 
d="M265 8q-39 -18 -89 -18q-106 0 -106 120v155l-40 -15v109l40 15v218h-60v105h195v-274l40 15v-109l-40 -15v-179q0 -30 23 -30q16 0 37 8v-105z" />
    <glyph glyph-name="OE" unicode="&#x152;" horiz-adv-x="792" 
d="M772 0h-350q-12 0 -41.5 -5t-52.5 -5q-133 0 -213 87t-80 257t80 256.5t213 86.5q25 0 54 -5t40 -5h350v-182h-105v67h-144v-155h186v-115h-186v-167h144v73h105v-188zM383 114v441q-25 12 -55 12q-69 0 -108.5 -58t-39.5 -175t39.5 -174t108.5 -57q32 0 55 11z" />
    <glyph glyph-name="oe" unicode="&#x153;" horiz-adv-x="805" 
d="M770 180h-272q4 -36 25.5 -56.5t59.5 -20.5q55 0 132 48l47 -93q-87 -68 -185 -68q-103 0 -154 62q-55 -62 -157 -62q-106 0 -168.5 61.5t-62.5 183.5t62 183.5t169 61.5q60 0 94.5 -16t62.5 -46q50 62 144 62q105 0 154 -72t49 -228zM357 235q0 133 -91 133t-91 -133
q0 -132 91 -132t91 132zM628 266q0 114 -61 114q-36 0 -51 -27.5t-18 -86.5h130z" />
    <glyph glyph-name="Scaron" unicode="&#x160;" horiz-adv-x="498" 
d="M468 185q0 -195 -227 -195q-105 0 -206 42v156h105v-67q43 -15 91 -15q94 0 94 75q0 38 -22.5 58t-67.5 37l-43 16q-33 12 -54.5 23t-49.5 33t-43 57t-15 81q0 92 62 141.5t164 49.5q113 0 207 -36v-156h-105v64q-56 14 -96 14q-89 0 -89 -66q0 -23 13.5 -40t30 -25.5
t46.5 -20.5l46 -18q34 -13 58 -27t49.5 -37.5t38.5 -59.5t13 -84zM433 813l-85 -116h-188l-85 116h157l22 -39l20 39h159z" />
    <glyph glyph-name="scaron" unicode="&#x161;" horiz-adv-x="408" 
d="M383 143q0 -153 -173 -153q-93 0 -179 37v139h105v-57q40 -8 62 -8q47 0 47 32q0 16 -13 24.5t-41 15.5l-38 9q-123 28 -123 142q0 83 49.5 119.5t126.5 36.5q91 0 166 -30v-140h-105v54q-27 5 -55 5q-44 0 -44 -31q0 -16 12.5 -23.5t39.5 -13.5l42 -10q121 -28 121 -148
zM390 697l-85 -146h-188l-85 146h147l32 -69l30 69h149z" />
    <glyph glyph-name="Ydieresis" unicode="&#x178;" horiz-adv-x="530" 
d="M520 562h-51l-138 -332v-125h80v-105h-300v105h80v125l-130 332h-51v105h246v-105h-49l57 -168l98 273h158v-105zM428 697h-125v125h125v-125zM228 697h-125v125h125v-125z" />
    <glyph glyph-name="Zcaron" unicode="&#x17d;" horiz-adv-x="506" 
d="M491 667l-266 -552h148v73h105v-188h-463l265 552h-147v-67h-105v182h463zM432 813l-85 -116h-188l-85 116h157l22 -39l20 39h159z" />
    <glyph glyph-name="zcaron" unicode="&#x17e;" horiz-adv-x="457" 
d="M432 470l-184 -355h74v71h105v-186h-402l181 355h-71v-65h-105v180h402zM408 697l-85 -146h-188l-85 146h147l32 -69l30 69h149z" />
    <glyph glyph-name="florin" unicode="&#x192;" horiz-adv-x="357" 
d="M347 466h-95v65q-2 0 -7.5 0.5t-9.5 0.5q-30 0 -30 -48v-74h90v-105h-90v-277q0 -55 -13.5 -97t-38 -69t-50 -43t-59.5 -29l-49 93q34 23 54.5 57.5t20.5 97.5v267h-60v105h60v87q0 74 39 112t111 38q61 0 127 -29v-152z" />
    <glyph glyph-name="uni02BB" unicode="&#x2bb;" horiz-adv-x="265" 
d="M205 386h-145v135l36 156l96 -16l-26 -130h39v-145z" />
    <glyph glyph-name="afii57929" unicode="&#x2bc;" horiz-adv-x="265" 
d="M205 532l-36 -156l-96 16l26 130h-39v145h145v-135z" />
    <glyph glyph-name="circumflex" unicode="&#x2c6;" horiz-adv-x="398" 
d="M378 551h-149l-30 69l-32 -69h-147l85 146h188z" />
    <glyph glyph-name="caron" unicode="&#x2c7;" horiz-adv-x="398" 
d="M378 697l-85 -146h-188l-85 146h147l32 -69l30 69h149z" />
    <glyph glyph-name="breve" unicode="&#x2d8;" horiz-adv-x="340" 
d="M320 697q0 -156 -150 -156t-150 156h113q0 -55 37 -55t37 55h113z" />
    <glyph glyph-name="dotaccent" unicode="&#x2d9;" horiz-adv-x="165" 
d="M145 562h-125v125h125v-125z" />
    <glyph glyph-name="ring" unicode="&#x2da;" horiz-adv-x="326" 
d="M306 639q0 -57 -36 -88.5t-107 -31.5t-107 31.5t-36 88.5t36 88.5t107 31.5t107 -31.5t36 -88.5zM194 639q0 49 -31 49t-31 -49t31 -49t31 49z" />
    <glyph glyph-name="ogonek" unicode="&#x2db;" horiz-adv-x="274" 
d="M254 -170q-51 -30 -108 -30q-126 0 -126 107q0 84 87 123l92 -10q-49 -47 -49 -88q0 -32 32 -32q25 0 52 17z" />
    <glyph glyph-name="tilde" unicode="&#x2dc;" horiz-adv-x="353" 
d="M333 648q-37 -95 -103 -95q-27 0 -55 12t-44 12q-33 0 -65 -24l-46 49q15 38 42.5 66.5t64.5 28.5q31 0 58 -12t41 -12q36 0 61 23z" />
    <glyph glyph-name="hungarumlaut" unicode="&#x2dd;" horiz-adv-x="464" 
d="M444 698l-79 -137h-145l74 137h150zM244 698l-79 -137h-145l74 137h150z" />
    <glyph glyph-name="gravecomb" unicode="&#x300;" 
d="M-203 551h-135l-79 146h150z" />
    <glyph glyph-name="acutecomb" unicode="&#x301;" 
d="M-129 697l-79 -146h-135l64 146h150z" />
    <glyph glyph-name="uni0302" unicode="&#x302;" 
d="M-86 551h-149l-30 69l-32 -69h-147l85 146h188z" />
    <glyph glyph-name="tildecomb" unicode="&#x303;" 
d="M-113 648q-14 -40 -41 -67.5t-62 -27.5q-27 0 -55 12t-44 12q-36 0 -65 -24l-46 49q15 37 42 66t65 29q31 0 58 -12t41 -12q34 0 61 23z" />
    <glyph glyph-name="uni0304" unicode="&#x304;" 
d="M-19 544h-257v111h257v-111z" />
    <glyph glyph-name="uni0306" unicode="&#x306;" 
d="M-19 707q0 -156 -150 -156t-150 156h113q0 -55 37 -55t37 55h113z" />
    <glyph glyph-name="uni0307" unicode="&#x307;" 
d="M-69 532h-135v135h135v-135z" />
    <glyph glyph-name="uni0308" unicode="&#x308;" 
d="M-19 562h-125v125h125v-125zM-219 562h-125v125h125v-125z" />
    <glyph glyph-name="uni030A" unicode="&#x30a;" 
d="M-19 639q0 -57 -36 -88.5t-107 -31.5t-107 31.5t-36 88.5t36 88.5t107 31.5t107 -31.5t36 -88.5zM-131 639q0 49 -31 49t-31 -49t31 -49t31 49z" />
    <glyph glyph-name="uni030B" unicode="&#x30b;" 
d="M-19 688l-79 -137h-145l74 137h150zM-219 688l-79 -137h-145l74 137h150z" />
    <glyph glyph-name="uni030C" unicode="&#x30c;" 
d="M-48 697l-85 -146h-188l-85 146h147l32 -69l30 69h149z" />
    <glyph glyph-name="uni0312" unicode="&#x312;" 
d="M-164 667l27 116l96 -16l-17 -90h39v-145h-145v135z" />
    <glyph glyph-name="uni0313" unicode="&#x313;" 
d="M-19 532l-27 -116l-96 16l17 90h-39v145h145v-135z" />
    <glyph glyph-name="uni0326" unicode="&#x326;" 
d="M-19 -165l-27 -116l-96 16l17 90h-39v145h145v-135z" />
    <glyph glyph-name="uni0327" unicode="&#x327;" 
d="M-19 -165l-27 -116l-96 16l17 90h-39v145h145v-135z" />
    <glyph glyph-name="uni0328" unicode="&#x328;" 
d="M-19 -170q-51 -30 -108 -30q-126 0 -126 107q0 84 87 123l92 -10q-49 -47 -49 -88q0 -32 32 -32q25 0 52 17z" />
    <glyph glyph-name="uni0335" unicode="&#x335;" 
d="M-19 180h-257v111h257v-111z" />
    <glyph glyph-name="uni0336" unicode="&#x336;" 
d="M-29 178h-427v115h427v-115z" />
    <glyph glyph-name="uni0394" unicode="&#x394;" horiz-adv-x="628" 
d="M594 0h-562v35l248 593l57 14l257 -607v-35zM437 60l-171 415l-166 -415h337z" />
    <glyph glyph-name="uni03A9" unicode="&#x3a9;" horiz-adv-x="704" 
d="M672 160l-27 -160h-245l-9 22q2 4 20 43.5l24.5 54.5t21 52.5t20.5 61.5t12 57t6 62q0 131 -40 191.5t-105 60.5q-68 0 -105 -58.5t-37 -196.5q0 -54 18.5 -119.5t35.5 -104.5t48 -104l-9 -22h-246l-24 160h33q15 -41 29.5 -53t46.5 -12h88q-34 25 -55.5 44t-50.5 52
t-44 75t-15 91q0 129 81.5 207t208.5 78q128 0 207 -75.5t79 -203.5q0 -44 -14 -83.5t-43.5 -75t-52.5 -56.5t-61 -53h99q30 0 43 12t29 53h33z" />
    <glyph glyph-name="uni03BC" unicode="&#x3bc;" horiz-adv-x="536" 
d="M526 8q-39 -18 -89 -18q-75 0 -91 69q-58 -65 -141 -69v-85h90v-105h-285v105h60v460h-60v105h195v-307q0 -53 42 -53q38 0 84 39v216h-60v105h195v-335q0 -30 23 -30q17 0 37 8v-105z" />
    <glyph glyph-name="pi" unicode="&#x3c0;" horiz-adv-x="561" 
d="M509 445l29 -8q-4 -30 -15.5 -64.5t-21.5 -47.5q-21 -7 -60 -7q-5 -59 -5 -176q0 -79 38 -79q19 0 41 19l13 -27q-18 -29 -50.5 -48t-65.5 -19q-100 0 -100 126q0 58 9 207q-27 0 -64.5 1t-53.5 1v-9q0 -97 -13 -170t-25 -99t-24 -40q-32 -13 -68 -17l-8 21
q47 63 68.5 150.5t21.5 164.5q-41 0 -65 -7.5t-55 -27.5l-17 30q38 52 73.5 75t97.5 23q36 0 126.5 -1.5t136.5 -1.5q23 0 34.5 6.5t22.5 24.5z" />
    <glyph glyph-name="uni2007" unicode="&#x2007;" horiz-adv-x="538" 
 />
    <glyph glyph-name="uni2008" unicode="&#x2008;" horiz-adv-x="265" 
 />
    <glyph glyph-name="uni200B" unicode="&#x200b;" horiz-adv-x="0" 
 />
    <glyph glyph-name="endash" unicode="&#x2013;" horiz-adv-x="387" 
d="M357 222h-327v115h327v-115z" />
    <glyph glyph-name="emdash" unicode="&#x2014;" horiz-adv-x="487" 
d="M457 222h-427v115h427v-115z" />
    <glyph glyph-name="quoteleft" unicode="&#x2018;" horiz-adv-x="265" 
d="M205 386h-145v135l36 156l96 -16l-26 -130h39v-145z" />
    <glyph glyph-name="quoteright" unicode="&#x2019;" horiz-adv-x="265" 
d="M205 532l-36 -156l-96 16l26 130h-39v145h145v-135z" />
    <glyph glyph-name="quotesinglbase" unicode="&#x201a;" horiz-adv-x="265" 
d="M205 10l-36 -156l-96 16l26 130h-39v145h145v-135z" />
    <glyph glyph-name="quotedblleft" unicode="&#x201c;" horiz-adv-x="480" 
d="M420 386h-145v135l36 156l96 -16l-26 -130h39v-145zM205 386h-145v135l36 156l96 -16l-26 -130h39v-145z" />
    <glyph glyph-name="quotedblright" unicode="&#x201d;" horiz-adv-x="480" 
d="M420 532l-36 -156l-96 16l26 130h-39v145h145v-135zM205 532l-36 -156l-96 16l26 130h-39v145h145v-135z" />
    <glyph glyph-name="quotedblbase" unicode="&#x201e;" horiz-adv-x="480" 
d="M420 10l-36 -156l-96 16l26 130h-39v145h145v-135zM205 10l-36 -156l-96 16l26 130h-39v145h145v-135z" />
    <glyph glyph-name="dagger" unicode="&#x2020;" horiz-adv-x="480" 
d="M450 345h-136v-345h-150v345h-134v125h134v197h150v-197h136v-125z" />
    <glyph glyph-name="daggerdbl" unicode="&#x2021;" horiz-adv-x="480" 
d="M450 157h-136v-157h-150v157h-134v125h134v103h-134v125h134v157h150v-157h136v-125h-136v-103h136v-125z" />
    <glyph glyph-name="bullet" unicode="&#x2022;" horiz-adv-x="305" 
d="M245 245h-185v185h185v-185z" />
    <glyph glyph-name="ellipsis" unicode="&#x2026;" horiz-adv-x="765" 
d="M705 0h-145v145h145v-145zM205 0h-145v145h145v-145zM455 0h-145v145h145v-145z" />
    <glyph glyph-name="perthousand" unicode="&#x2030;" horiz-adv-x="1261" 
d="M1236 176q0 -97 -49.5 -141.5t-123.5 -44.5t-123.5 44.5t-49.5 141.5t49.5 141.5t123.5 44.5t123.5 -44.5t49.5 -141.5zM860 176q0 -97 -49.5 -141.5t-123.5 -44.5t-123.5 44.5t-49.5 141.5t49.5 141.5t123.5 44.5t123.5 -44.5t49.5 -141.5zM371 461q0 -97 -49.5 -141.5
t-123.5 -44.5t-123.5 44.5t-49.5 141.5t49.5 141.5t123.5 44.5t123.5 -44.5t49.5 -141.5zM646 622l-281 -637l-126 30l281 637zM231 461q0 54 -7 73.5t-26 19.5t-26 -19.5t-7 -73.5t7 -73.5t26 -19.5t26 19.5t7 73.5zM1096 176q0 54 -7 73.5t-26 19.5t-26 -19.5t-7 -73.5
t7 -73.5t26 -19.5t26 19.5t7 73.5zM720 176q0 54 -7 73.5t-26 19.5t-26 -19.5t-7 -73.5t7 -73.5t26 -19.5t26 19.5t7 73.5z" />
    <glyph glyph-name="guilsinglleft" unicode="&#x2039;" horiz-adv-x="290" 
d="M270 118l-95 -58l-155 215l155 215l95 -58l-106 -157z" />
    <glyph glyph-name="guilsinglright" unicode="&#x203a;" horiz-adv-x="290" 
d="M270 275l-155 -215l-95 58l106 157l-106 157l95 58z" />
    <glyph glyph-name="fraction" unicode="&#x2044;" horiz-adv-x="323" 
d="M17 3l177 675l112 -19l-178 -674z" />
    <glyph glyph-name="Euro" unicode="&#x20ac;" horiz-adv-x="591" 
d="M561 35q-97 -45 -204 -45q-58 0 -106.5 16.5t-92.5 65t-61 126.5h-67v90h56q0 5 -0.5 15t-0.5 15q0 20 1 30h-56v90h70q28 103 102.5 156t165.5 53q99 0 193 -42v-140h-105v55q-44 11 -83 11q-85 0 -131 -93h198v-90h-214q-1 -10 -1 -30t1 -30h214v-90h-202
q11 -40 44 -65t85 -25q42 0 89 15v55h105v-143z" />
    <glyph glyph-name="afii61289" unicode="&#x2113;" horiz-adv-x="429" 
d="M389 137l24 -22q-68 -124 -181 -124q-78 0 -111 38q-19 21 -27.5 50.5t-8.5 89.5v56l-54 -35l-14 31l68 47v127q0 96 11 144t40 85q47 61 111 61q50 0 76.5 -37t26.5 -94q0 -75 -34.5 -134t-109.5 -126v-71q0 -87 18 -122.5t61 -35.5q54 0 104 72zM206 445v-97
q74 83 74 204q0 97 -37 97q-23 0 -30 -40.5t-7 -163.5z" />
    <glyph glyph-name="uni2117" unicode="&#x2117;" horiz-adv-x="798" 
d="M763 334q0 -91 -30 -162.5t-81 -114.5t-115.5 -65t-137.5 -22t-137.5 22t-115.5 65t-81 114.5t-30 162.5q0 90 30 161t81 114t115.5 65.5t137.5 22.5t137.5 -22t115.5 -65t81 -114t30 -162zM618 334q0 123 -60 185t-159 62t-159 -62t-60 -185t60 -185.5t159 -62.5
q103 0 161 61.5t58 186.5zM561 405q0 -71 -41.5 -102t-108.5 -31h-17v-145h-104v401h121q150 0 150 -123zM454 401q0 26 -11 36.5t-37 10.5h-12v-96h11q26 0 37.5 9.5t11.5 39.5z" />
    <glyph glyph-name="trademark" unicode="&#x2122;" horiz-adv-x="873" 
d="M833 277h-129v182l-62 -182h-92l-61 181v-181h-130v390h162l75 -194l75 194h162v-390zM339 549h-95v-272h-130v272h-94v118h319v-118z" />
    <glyph glyph-name="Omega" unicode="&#x2126;" horiz-adv-x="704" 
d="M672 160l-27 -160h-245l-9 22q2 4 20 43.5l24.5 54.5t21 52.5t20.5 61.5t12 57t6 62q0 131 -40 191.5t-105 60.5q-68 0 -105 -58.5t-37 -196.5q0 -54 18.5 -119.5t35.5 -104.5t48 -104l-9 -22h-246l-24 160h33q15 -41 29.5 -53t46.5 -12h88q-34 25 -55.5 44t-50.5 52
t-44 75t-15 91q0 129 81.5 207t208.5 78q128 0 207 -75.5t79 -203.5q0 -44 -14 -83.5t-43.5 -75t-52.5 -56.5t-61 -53h99q30 0 43 12t29 53h33z" />
    <glyph glyph-name="estimated" unicode="&#x212e;" horiz-adv-x="791" 
d="M759 309h-590q-5 0 -5 -4v-179q0 -10 8 -20q94 -97 223 -97q141 0 235 109h53q-50 -59 -126 -93t-163 -34q-150 0 -256.5 95.5t-106.5 231.5t106.5 232t256.5 96q155 0 260 -98.5t105 -238.5zM625 332v180q0 13 -8 21q-96 93 -222 93q-128 0 -222 -96q-9 -9 -9 -22v-176
q0 -6 5 -6h453q3 0 3 6z" />
    <glyph glyph-name="arrowleft" unicode="&#x2190;" horiz-adv-x="727" 
d="M677 285h-435l110 -211h-118l-184 272l183 272h118l-109 -211h435v-122z" />
    <glyph glyph-name="arrowup" unicode="&#x2191;" horiz-adv-x="727" 
d="M635 359l-211 109v-435h-122v435l-210 -110v118l271 184l272 -183v-118z" />
    <glyph glyph-name="arrowright" unicode="&#x2192;" horiz-adv-x="727" 
d="M677 346l-184 -272h-118l110 211h-435v122h435l-109 211h118z" />
    <glyph glyph-name="arrowdown" unicode="&#x2193;" horiz-adv-x="727" 
d="M635 216l-272 -183l-271 184v118l210 -110v435h122v-435l211 109v-118z" />
    <glyph glyph-name="uni2196" unicode="&#x2196;" horiz-adv-x="727" 
d="M638 168l-87 -87l-307 308l-71 -227l-84 84l62 322l321 63l84 -84l-227 -72z" />
    <glyph glyph-name="uni2197" unicode="&#x2197;" horiz-adv-x="727" 
d="M638 246l-84 -84l-71 227l-308 -308l-86 87l308 307l-226 72l83 84l321 -63z" />
    <glyph glyph-name="uni2198" unicode="&#x2198;" horiz-adv-x="727" 
d="M638 466l-63 -322l-321 -63l-83 84l226 72l-308 307l86 87l308 -308l71 227z" />
    <glyph glyph-name="uni2199" unicode="&#x2199;" horiz-adv-x="727" 
d="M638 544l-309 -307l227 -72l-84 -84l-321 63l-62 322l84 84l71 -227l307 308z" />
    <glyph glyph-name="partialdiff" unicode="&#x2202;" horiz-adv-x="531" 
d="M257 402q32 0 63.5 -14t50.5 -40q12 76 12 130q0 42 -9.5 77.5t-39 64t-76.5 28.5q-64 0 -141 -64q-12 0 -27 25t-15 47q0 20 46.5 35t96.5 15q70 0 124 -35t83.5 -89.5t44.5 -112.5t15 -113q0 -68 -15.5 -130.5t-46 -116t-82.5 -86t-119 -32.5q-83 0 -133 50t-50 136
q0 101 63.5 163t154.5 62zM287 355q-59 0 -92 -71t-33 -169q0 -88 64 -88q35 0 64 44.5t45.5 103t26.5 127.5q-10 20 -30 36.5t-45 16.5z" />
    <glyph glyph-name="Delta" unicode="&#x2206;" horiz-adv-x="628" 
d="M594 0h-562v35l248 593l57 14l257 -607v-35zM437 60l-171 415l-166 -415h337z" />
    <glyph glyph-name="product" unicode="&#x220f;" horiz-adv-x="690" 
d="M664 641v-32q-61 -5 -74.5 -19.5t-13.5 -69.5v-470q0 -59 13.5 -74t73.5 -20v-33h-288v33q51 4 61.5 18t10.5 76v516q0 23 -6 28.5t-29 5.5h-137q-22 0 -27.5 -5t-5.5 -26v-519q0 -61 9 -75.5t56 -18.5v-33h-281v33q59 4 73 19.5t14 74.5v470q0 56 -14.5 70.5t-75.5 18.5
v32h641z" />
    <glyph glyph-name="summation" unicode="&#x2211;" horiz-adv-x="544" 
d="M523 123l-46 -207h-452v32l205 288l-201 372v33h448q6 -97 11 -168l-33 -7q-16 65 -36 99q-13 22 -31.5 29.5t-69.5 7.5h-135l154 -280l-209 -301h222q65 0 86 16.5t53 94.5z" />
    <glyph glyph-name="minus" unicode="&#x2212;" horiz-adv-x="337" 
d="M307 227h-277v120h277v-120z" />
    <glyph glyph-name="uni2219" unicode="&#x2219;" horiz-adv-x="431" 
d="M308 245h-185v185h185v-185z" />
    <glyph glyph-name="radical" unicode="&#x221a;" horiz-adv-x="536" 
d="M527 798l-168 -949l-29 -13l-201 497l-83 -38l-13 40l180 79l135 -355h2l129 749z" />
    <glyph glyph-name="infinity" unicode="&#x221e;" horiz-adv-x="712" 
d="M669 261q0 -74 -44.5 -118.5t-105.5 -44.5q-89 0 -163 101q-40 -50 -78 -75.5t-89 -25.5q-60 0 -103.5 44t-43.5 114q0 71 44 116t111 45q90 0 163 -99q39 48 75.5 73.5t87.5 25.5q62 0 104 -43.5t42 -112.5zM198 169q23 0 46.5 14t37 28t35.5 41q-37 52 -61.5 73.5
t-60.5 21.5q-37 0 -58.5 -25.5t-21.5 -66.5q0 -36 23.5 -61t59.5 -25zM516 347q-13 0 -26 -5t-22 -10t-22 -17.5l-18 -17.5t-18 -21t-14 -17q40 -52 66 -71t58 -19q34 0 55 27t21 59q0 40 -22 66t-58 26z" />
    <glyph glyph-name="integral" unicode="&#x222b;" horiz-adv-x="387" 
d="M153 -13q-22 389 -22 437q0 81 11.5 143.5t29 98.5t41.5 59t45.5 31t45.5 8q27 0 50 -15t23 -40q0 -27 -17.5 -42.5t-40.5 -15.5q-16 0 -25 15.5t-15 31t-14 15.5q-25 0 -25 -84q0 -12 2 -52q20 -382 20 -410q0 -184 -51 -274t-128 -90q-29 0 -50.5 17t-21.5 41
q0 26 21 43.5t46 17.5q18 0 30 -34t21 -34q26 0 26 85q0 14 -2 48z" />
    <glyph glyph-name="approxequal" unicode="&#x2248;" horiz-adv-x="526" 
d="M87 329l-67 67q62 99 156 99q47 0 99.5 -27t74.5 -27q47 0 87 61l69 -67q-60 -101 -155 -101q-39 0 -95 28t-81 28q-44 0 -88 -61zM87 138l-67 67q62 100 156 100q47 0 99.5 -27t74.5 -27q47 0 87 60l69 -67q-60 -100 -155 -100q-39 0 -95 27.5t-81 27.5q-44 0 -88 -61z
" />
    <glyph glyph-name="notequal" unicode="&#x2260;" horiz-adv-x="441" 
d="M94 92l35 85h-99v110h145l25 60h-170v110h216l36 85h94l-36 -85h71v-110h-117l-25 -60h142v-110h-189l-35 -85h-93z" />
    <glyph glyph-name="lessequal" unicode="&#x2264;" horiz-adv-x="426" 
d="M30 0v103h351v-103h-351zM396 266l-45 -109l-321 151v110l321 169l45 -107l-236 -115z" />
    <glyph glyph-name="greaterequal" unicode="&#x2265;" horiz-adv-x="426" 
d="M30 0v103h351v-103h-351zM30 478l45 109l321 -151v-110l-321 -169l-45 107l236 115z" />
    <glyph glyph-name="dotmath" unicode="&#x22c5;" horiz-adv-x="431" 
d="M288 265h-145v145h145v-145z" />
    <glyph glyph-name="filledbox" unicode="&#x25a0;" horiz-adv-x="867" 
d="M767 0h-667v667h667v-667z" />
    <glyph glyph-name="H22073" unicode="&#x25a1;" horiz-adv-x="867" 
d="M767 0h-667v667h667v-667zM677 85v497h-487v-497h487z" />
    <glyph glyph-name="uni25B6" unicode="&#x25b6;" horiz-adv-x="484" 
d="M434 346l-334 -232v462z" />
    <glyph glyph-name="uni25C0" unicode="&#x25c0;" horiz-adv-x="484" 
d="M384 114l-334 232l334 230v-462z" />
    <glyph glyph-name="lozenge" unicode="&#x25ca;" horiz-adv-x="546" 
d="M504 306l-185 -373h-93l-183 373l185 375h92zM417 306l-142 297h-3l-143 -297l143 -299h3z" />
    <glyph glyph-name="H18533" unicode="&#x25cf;" horiz-adv-x="867" 
d="M767 334q0 -147 -92.5 -240.5t-240.5 -93.5q-149 0 -241.5 93.5t-92.5 240.5q0 148 93 240.5t241 92.5q147 0 240 -93t93 -240z" />
    <glyph glyph-name="uni25EF" unicode="&#x25ef;" horiz-adv-x="867" 
d="M767 334q0 -147 -92.5 -240.5t-240.5 -93.5q-149 0 -241.5 93.5t-92.5 240.5q0 148 93 240.5t241 92.5q147 0 240 -93t93 -240zM677 334q0 112 -69 185t-174 73q-106 0 -175 -72.5t-69 -185.5q0 -111 69 -185t175 -74t174.5 73t68.5 186z" />
    <glyph glyph-name="uni2612" unicode="&#x2612;" horiz-adv-x="867" 
d="M767 0h-667v667h667v-667zM677 85v497h-487v-497h487zM602 221l-60 -59l-113 113l-112 -112l-57 56l113 113l-113 112l59 60l113 -113l112 112l56 -57l-112 -111z" />
    <glyph glyph-name="uni26AD" unicode="&#x26ad;" horiz-adv-x="924" 
d="M596 85q-75 0 -134 36q-61 -36 -134 -36q-108 0 -178 69.5t-70 179.5t70 179t178 69q73 0 134 -36q59 36 134 36q108 0 178 -69t70 -179t-70 -179.5t-178 -69.5zM160 334q0 -77 47 -128t121 -51q40 0 75 16q-56 67 -56 163q0 94 56 161q-34 17 -75 17q-74 0 -121 -50.5
t-47 -127.5zM577 334q0 -96 -56 -163q35 -16 75 -16q74 0 121 51t47 128t-47 127.5t-121 50.5q-41 0 -75 -17q56 -67 56 -161zM427 334q0 -68 35 -114q35 48 35 114q0 65 -35 113q-35 -46 -35 -113z" />
    <glyph glyph-name="orn001" unicode="&#xea01;" horiz-adv-x="867" 
d="M767 334q0 -147 -92.5 -240.5t-240.5 -93.5q-149 0 -241.5 93.5t-92.5 240.5q0 148 93 240.5t241 92.5q147 0 240 -93t93 -240zM677 334q0 107 -64 179l-358 -359q71 -79 179 -79q106 0 174.5 73t68.5 186z" />
    <glyph glyph-name="orn002" unicode="&#xea02;" horiz-adv-x="867" 
d="M767 334q0 -147 -92.5 -240.5t-240.5 -93.5q-149 0 -241.5 93.5t-92.5 240.5q0 148 93 240.5t241 92.5q147 0 240 -93t93 -240zM677 334q0 112 -69 185t-174 73q-106 0 -175 -72.5t-69 -185.5q0 -86 45 -154l192 192l-156 43l57 56l213 -41l40 -214l-56 -57l-42 157
l-193 -194q63 -47 144 -47q106 0 174.5 73t68.5 186z" />
    <glyph glyph-name="orn003" unicode="&#xea03;" horiz-adv-x="867" 
d="M767 334q0 -147 -92.5 -240.5t-240.5 -93.5q-149 0 -241.5 93.5t-92.5 240.5q0 148 93 240.5t241 92.5q147 0 240 -93t93 -240zM677 334q0 112 -69 185t-174 73q-95 0 -161.5 -59.5t-79.5 -156.5h167v134l254 -174l-254 -176v136h-168q12 -97 79 -159t163 -62
q106 0 174.5 73t68.5 186z" />
    <glyph glyph-name="orn004" unicode="&#xea04;" horiz-adv-x="924" 
d="M844 334q0 -110 -70 -179.5t-178 -69.5q-74 0 -134 35q-60 -35 -133 -35q-109 0 -179 69.5t-70 179.5t70.5 179t178.5 69q73 0 133 -35q60 35 134 35q108 0 178 -69t70 -179zM764 334q0 77 -47 127.5t-121 50.5q-75 0 -122 -50t-47 -128q0 -77 47 -128t122 -51
q74 0 121 51t47 128zM402 171q-55 66 -55 163q0 96 55 162q-35 16 -73 16q-75 0 -122 -50t-47 -128q0 -77 47 -128t122 -51q38 0 73 16z" />
    <glyph glyph-name="orn005" unicode="&#xea05;" horiz-adv-x="867" 
d="M767 0h-667v667h667v-667zM677 85v497h-487v-115h377v-382h110zM477 85v297h-287v-297h287z" />
    <glyph glyph-name="orn006" unicode="&#xea06;" horiz-adv-x="867" 
d="M767 0h-667v667h667v-667zM677 85v497h-487v-196h160v134l254 -174l-254 -176v136h-160v-221h487z" />
    <glyph glyph-name="orn007" unicode="&#xea07;" horiz-adv-x="867" 
d="M767 0h-667v667h667v-667zM677 185v297h-487v-297h487z" />
    <glyph glyph-name="orn008" unicode="&#xea08;" horiz-adv-x="867" 
d="M767 334q0 -147 -92.5 -240.5t-240.5 -93.5q-149 0 -241.5 93.5t-92.5 240.5q0 148 93 240.5t241 92.5q147 0 240 -93t93 -240zM677 333q0 110 -67.5 184.5t-176.5 74.5v-258h-243q0 -111 69 -185t175 -74v258h243z" />
    <glyph glyph-name="orn009" unicode="&#xea09;" horiz-adv-x="867" 
d="M767 334q0 -147 -92.5 -240.5t-240.5 -93.5q-149 0 -241.5 93.5t-92.5 240.5q0 148 93 240.5t241 92.5q147 0 240 -93t93 -240zM677 334q0 112 -69 185t-174 73v-259h-244q0 -111 69.5 -184.5t174.5 -73.5q106 0 174.5 73t68.5 186z" />
    <glyph glyph-name="orn010" unicode="&#xea0a;" horiz-adv-x="867" 
d="M767 334q0 -147 -92.5 -240.5t-240.5 -93.5q-149 0 -241.5 93.5t-92.5 240.5q0 148 93 240.5t241 92.5q147 0 240 -93t93 -240zM677 334q0 101 -57 171t-148 84v-211h121v-80h-121v-122h-80v122h-121v80h121v211q-89 -14 -145.5 -84t-56.5 -171q0 -111 69 -185t175 -74
t174.5 73t68.5 186z" />
    <glyph glyph-name="orn011" unicode="&#xea0b;" horiz-adv-x="867" 
d="M767 334q0 -147 -92.5 -240.5t-240.5 -93.5q-149 0 -241.5 93.5t-92.5 240.5q0 148 93 240.5t241 92.5q147 0 240 -93t93 -240zM677 334q0 112 -69 185t-174 73q-106 0 -175 -72.5t-69 -185.5q0 -111 69 -185t175 -74t174.5 73t68.5 186zM607 224l-60 -59l-113 113
l-112 -112l-57 56l113 113l-113 112l59 60l113 -113l112 112l56 -57l-112 -111z" />
    <glyph glyph-name="orn012" unicode="&#xea0c;" horiz-adv-x="867" 
d="M767 334q0 -147 -92.5 -240.5t-240.5 -93.5q-149 0 -241.5 93.5t-92.5 240.5q0 136 80.5 226.5t211.5 104.5v105h80v-105q132 -13 213.5 -103.5t81.5 -227.5zM677 334q0 101 -57 171t-148 84v-263h-80v263q-89 -14 -145.5 -84t-56.5 -171q0 -111 69 -185t175 -74
t174.5 73t68.5 186z" />
    <glyph glyph-name="orn013" unicode="&#xea0d;" horiz-adv-x="924" 
d="M844 334q0 -110 -70 -179.5t-178 -69.5q-74 0 -134 35q-60 -35 -133 -35q-109 0 -179 69.5t-70 179.5t70.5 179t178.5 69q73 0 133 -35q60 35 134 35q108 0 178 -69t70 -179zM402 171q-55 66 -55 163q0 96 55 162q-35 16 -73 16q-75 0 -122 -50t-47 -128q0 -77 47 -128
t122 -51q38 0 73 16z" />
    <glyph glyph-name="orn014" unicode="&#xea0e;" horiz-adv-x="737" 
d="M637 0h-537v720h347l190 -190v-530zM567 65v445h-150v145h-247v-590h397zM490 296h-190q3 -51 22 -77t50 -26q39 0 91 32l22 -39q-55 -42 -112 -42q-60 0 -98.5 40.5t-38.5 129.5q0 83 36.5 127.5t93.5 44.5q124 0 124 -190zM426 338q0 46 -15 74t-45 28q-60 0 -66 -102
h126z" />
    <glyph glyph-name="orn015" unicode="&#xea0f;" horiz-adv-x="917" 
d="M817 0h-717v307h90v413h347l190 -190v-223h90v-307zM657 307v203h-150v145h-247v-348h397zM727 85v137h-537v-137h537zM587 370h-287v65h287v-65zM467 490h-167v65h167v-65z" />
    <glyph glyph-name="orn016" unicode="&#xea10;" horiz-adv-x="867" 
d="M767 0h-667v667h667v-667zM677 85v497h-487v-497h487zM617 307h-367v65h367v-65zM617 427h-367v65h367v-65zM517 187h-267v65h267v-65z" />
    <glyph glyph-name="fi" unicode="&#xfb01;" horiz-adv-x="536" 
d="M526 8q-39 -18 -89 -18q-106 0 -106 120v255h-126v-260h60v-105h-255v105h60v260h-60v105h60v87q0 74 39 112t111 38q60 0 117 -25v-156h-85v65q-2 0 -7.5 0.5t-9.5 0.5q-30 0 -30 -48v-74h261v-335q0 -30 23 -30q16 0 37 8v-105zM466 552h-109v115h109v-115z" />
    <glyph glyph-name="fl" unicode="&#xfb02;" horiz-adv-x="536" 
d="M321 526h-69v65q-2 0 -7.5 0.5t-9.5 0.5q-30 0 -30 -48v-74h70v-105h-70v-260h60v-105h-255v105h60v260h-60v105h60v87q0 74 39 112t111 38q52 0 101 -18v-163zM526 8q-39 -18 -89 -18q-106 0 -106 120v587h135v-562q0 -30 23 -30q16 0 37 8v-105z" />
    <glyph glyph-name="uniFEFF" unicode="&#xfeff;" horiz-adv-x="0" 
 />
    <glyph glyph-name="u1F4C4" unicode="&#x1f4c4;" horiz-adv-x="737" 
d="M637 0h-537v720h347l190 -190v-530zM567 65v445h-150v145h-247v-590h397zM497 270h-287v65h287v-65zM497 390h-287v65h287v-65zM397 150h-187v65h187v-65z" />
    <glyph glyph-name="registered.sups" horiz-adv-x="496" 
d="M471 454q0 -109 -64.5 -166.5t-158.5 -57.5t-158.5 57.5t-64.5 166.5q0 108 64.5 165.5t158.5 57.5t158.5 -57.5t64.5 -165.5zM379 454q0 74 -36 111t-95 37t-95 -37t-36 -111t36 -111.5t95 -37.5q62 0 96.5 37t34.5 112zM349 354l-56 -23l-55 92h-2v-87h-62v240h72
q90 0 90 -74q0 -50 -39 -69zM272 499q0 16 -6.5 22.5t-22.5 6.5h-7v-57h7q16 0 22.5 5t6.5 23z" />
    <glyph glyph-name="numbersign.tf" horiz-adv-x="560" 
d="M520 147h-65v-147h-140v147h-70v-147h-140v147h-65v125h65v123h-65v125h65v147h140v-147h70v147h140v-147h65v-125h-65v-123h65v-125zM315 272v123h-70v-123h70z" />
    <glyph glyph-name="dollar.tf" horiz-adv-x="560" 
d="M489 180q0 -164 -159 -186v-110h-105v109q-73 2 -150 34v161h105v-71q39 -12 82 -12q84 0 84 68q0 32 -17 50.5t-52 31.5l-64 25q-142 54 -142 181q0 77 44 123.5t120 58.5v110h105v-110q74 -7 143 -34v-154h-105v67q-39 12 -85 12q-79 0 -79 -63q0 -21 12 -36t23.5 -21
t35.5 -16l68 -29q136 -57 136 -189z" />
    <glyph glyph-name="zero.tf" horiz-adv-x="560" 
d="M514 319q0 -329 -234 -329t-234 329q0 328 234 328t234 -328zM369 319q0 123 -20 170.5t-69 47.5t-69 -48.5t-20 -169.5q0 -124 20 -170.5t69 -46.5t69 46.5t20 170.5z" />
    <glyph glyph-name="one.tf" horiz-adv-x="560" 
d="M472 0h-390v105h129v378l-130 -23l-10 83l213 94h67v-532h121v-105z" />
    <glyph glyph-name="two.tf" horiz-adv-x="560" 
d="M492 0h-415q0 115 34 180.5t96 112.5l50 38q25 19 38.5 32t24.5 36.5t11 53.5q0 80 -81 80q-32 0 -68 -11v-62h-105v145q102 42 192 42q97 0 152 -48t55 -145q0 -73 -30 -118.5t-81 -84.5l-47 -36q-27 -20 -38.5 -30t-25 -29.5t-17.5 -40.5h150v63h105v-178z" />
    <glyph glyph-name="three.tf" horiz-adv-x="560" 
d="M477 183q0 -100 -60.5 -146.5t-155.5 -46.5t-179 34v154h105v-70q30 -8 61 -8q84 0 84 89q0 91 -102 91h-84v110h84q92 0 92 75q0 70 -72 70q-30 0 -63 -9v-66h-105v151q96 36 186 36q87 0 143 -37.5t56 -119.5q0 -67 -31.5 -100t-79.5 -50q121 -33 121 -157z" />
    <glyph glyph-name="four.tf" horiz-adv-x="560" 
d="M535 110h-90v-110h-140v110h-280v115l270 412h150v-412h90v-115zM305 225v252l-167 -252h167z" />
    <glyph glyph-name="five.tf" horiz-adv-x="560" 
d="M478 460h-105v62h-135l-7 -136q27 16 66 16q32 0 60 -9t55.5 -30t43.5 -63.5t16 -103.5q0 -109 -59.5 -157.5t-153.5 -48.5q-89 0 -171 33v155h105v-71q26 -7 51 -7q83 0 83 96q0 51 -15.5 73.5t-49.5 22.5q-42 0 -78 -46l-94 14l10 377h378v-177z" />
    <glyph glyph-name="six.tf" horiz-adv-x="560" 
d="M505 198q0 -106 -60.5 -157t-163.5 -51q-110 0 -168 67t-58 217q0 192 69.5 282.5t185.5 90.5q86 0 151 -31v-156h-105v73q-16 4 -45 4q-43 0 -73.5 -44.5t-33.5 -121.5q51 40 119 40q76 0 129 -49.5t53 -163.5zM360 199q0 54 -18 78t-55 24q-44 0 -87 -31v-20
q0 -84 21 -117t61 -33q39 0 58.5 23t19.5 76z" />
    <glyph glyph-name="seven.tf" horiz-adv-x="560" 
d="M501 522l-190 -522h-145l194 522h-196v-62h-105v177h442v-115z" />
    <glyph glyph-name="eight.tf" horiz-adv-x="560" 
d="M510 176q0 -95 -54.5 -140.5t-174.5 -45.5q-112 0 -171.5 45.5t-59.5 136.5q0 68 34.5 105.5t79.5 51.5q-47 22 -74 56.5t-27 99.5q0 78 59 120t161 42q101 0 157.5 -41.5t56.5 -120.5q0 -108 -106 -143q119 -37 119 -166zM365 176q0 42 -23.5 62t-76.5 39
q-35 -18 -52.5 -40t-17.5 -59q0 -39 24 -59t63 -20q38 0 60.5 19t22.5 58zM352 479q0 61 -71 61q-35 0 -54 -16t-19 -45q0 -31 20.5 -48.5t61.5 -33.5q21 10 31 16.5t20.5 24t10.5 41.5z" />
    <glyph glyph-name="nine.tf" horiz-adv-x="560" 
d="M506 324q0 -175 -55.5 -254.5t-176.5 -79.5q-87 0 -165 28v160h105v-70q33 -6 50 -6q42 0 68.5 38.5t26.5 119.5v9q-49 -32 -112 -32q-83 0 -138.5 46.5t-55.5 147.5q0 109 61 162.5t161 53.5q118 0 174.5 -77t56.5 -246zM361 377q0 85 -20.5 122.5t-66.5 37.5
q-37 0 -56.5 -26t-19.5 -74q0 -90 74 -90q44 0 89 30z" />
    <glyph glyph-name="cent.tf" horiz-adv-x="560" 
d="M473 30q-61 -28 -117 -36v-110h-105v110q-72 13 -118 70t-46 166q0 111 46 169.5t118 74.5v112h105v-109q58 -6 117 -35v-152h-105v70q-40 5 -48 5q-41 0 -67 -32.5t-26 -99.5q0 -66 24 -97t62 -31q31 0 55 8v73h105v-156z" />
    <glyph glyph-name="sterling.tf" horiz-adv-x="560" 
d="M490 0h-420v99q70 76 70 186h-70v105h70v57q0 102 54 151t137 49q88 0 159 -33v-149h-105v62q-23 5 -46 5q-64 0 -64 -84v-58h145v-105h-145q0 -129 -49 -175h159v68h105v-178z" />
    <glyph glyph-name="yen.tf" horiz-adv-x="560" 
d="M535 532h-51l-76 -167h103v-90h-144l-19 -40h163v-90h-165v-40h80v-105h-300v105h80v40h-165v90h163l-17 40h-146v90h107l-72 167h-51v105h246v-105h-49l57 -138l98 243h158v-105z" />
    <glyph glyph-name="florin.tf" horiz-adv-x="560" 
d="M484 466h-95v65q-2 0 -7.5 0.5t-9.5 0.5q-30 0 -30 -48v-74h120v-105h-120v-277q0 -55 -13.5 -97t-38 -69t-50 -43t-59.5 -29l-49 93q34 23 54.5 57.5t20.5 97.5v267h-90v105h90v87q0 74 39 112t111 38q61 0 127 -29v-152z" />
    <glyph glyph-name="uni2007.tf" horiz-adv-x="560" 
 />
    <glyph glyph-name="Euro.tf" horiz-adv-x="560" 
d="M540 35q-97 -45 -204 -45q-58 0 -106.5 16.5t-92.5 65t-61 126.5h-57v90h46q0 5 -0.5 15t-0.5 15q0 20 1 30h-46v90h60q28 103 102.5 156t165.5 53q104 0 193 -42v-140h-105v55q-44 11 -83 11q-85 0 -131 -93h198v-90h-214q-1 -10 -1 -30t1 -30h214v-90h-202
q11 -40 44 -65t85 -25q42 0 89 15v55h105v-143z" />
    <glyph glyph-name="hyphen.case" horiz-adv-x="277" 
d="M247 273h-217v120h217v-120z" />
    <glyph glyph-name="guillemotleft.case" horiz-adv-x="504" 
d="M484 176l-95 -58l-155 215l155 215l95 -58l-106 -157zM270 176l-95 -58l-155 215l155 215l95 -58l-106 -157z" />
    <glyph glyph-name="uni00AD.case" horiz-adv-x="277" 
d="M247 273h-217v120h217v-120z" />
    <glyph glyph-name="guillemotright.case" horiz-adv-x="504" 
d="M484 333l-155 -215l-95 58l106 157l-106 157l95 58zM270 333l-155 -215l-95 58l106 157l-106 157l95 58z" />
    <glyph glyph-name="gravecomb.case" 
d="M-260 697h-135l-69 116h150z" />
    <glyph glyph-name="acutecomb.case" 
d="M-201 813l-69 -116h-135l54 116h150z" />
    <glyph glyph-name="uni0302.case" 
d="M-148 697h-159l-20 39l-22 -39h-157l85 116h188z" />
    <glyph glyph-name="tildecomb.case" 
d="M-170 792q-14 -40 -41 -67.5t-62 -27.5q-27 0 -55 12t-44 12q-36 0 -65 -24l-46 49q15 37 42 66t65 29q31 0 58 -12t41 -12q34 0 61 23z" />
    <glyph glyph-name="uni0304.case" 
d="M-19 700h-257v111h257v-111z" />
    <glyph glyph-name="uni0306.case" 
d="M-19 853q0 -156 -150 -156t-150 156h113q0 -55 37 -55t37 55h113z" />
    <glyph glyph-name="uni0307.case" 
d="M-19 697h-125v125h125v-125z" />
    <glyph glyph-name="uni0308.case" 
d="M-19 697h-125v125h125v-125zM-219 697h-125v125h125v-125z" />
    <glyph glyph-name="uni030A.case" 
d="M-19 817q0 -57 -36 -88.5t-107 -31.5t-107 31.5t-36 88.5t36 88.5t107 31.5t107 -31.5t36 -88.5zM-131 817q0 49 -31 49t-31 -49t31 -49t31 49z" />
    <glyph glyph-name="uni030B.case" 
d="M-19 834l-79 -137h-145l74 137h150zM-219 834l-79 -137h-145l74 137h150z" />
    <glyph glyph-name="uni030C.case" 
d="M-73 813l-85 -116h-188l-85 116h157l22 -39l20 39h159z" />
    <glyph glyph-name="uni0326.case" 
d="M-19 -165l-27 -116l-96 16l17 90h-39v145h145v-135z" />
    <glyph glyph-name="uni0327.case" 
d="M-19 -165l-27 -116l-96 16l17 90h-39v145h145v-135z" />
    <glyph glyph-name="uni0328.case" 
d="M-19 -170q-51 -30 -108 -30q-126 0 -126 107q0 84 87 123l92 -10q-49 -47 -49 -88q0 -32 32 -32q25 0 52 17z" />
    <glyph glyph-name="endash.case" horiz-adv-x="387" 
d="M357 275h-327v115h327v-115z" />
    <glyph glyph-name="emdash.case" horiz-adv-x="487" 
d="M457 275h-427v115h427v-115z" />
    <glyph glyph-name="guilsinglleft.case" horiz-adv-x="290" 
d="M270 176l-95 -58l-155 215l155 215l95 -58l-106 -157z" />
    <glyph glyph-name="guilsinglright.case" horiz-adv-x="290" 
d="M270 333l-155 -215l-95 58l106 157l-106 157l95 58z" />
    <glyph glyph-name="arrowleft.ss01" horiz-adv-x="636" 
d="M586 285h-346l92 -181h-118l-164 242l163 242h118l-91 -181h346v-122z" />
    <glyph glyph-name="arrowright.ss01" horiz-adv-x="636" 
d="M586 346l-164 -242h-118l92 181h-346v122h346l-91 181h118z" />
    <glyph glyph-name="arrowleft.ss02" horiz-adv-x="739" 
d="M689 285h-327v-146l-312 207l312 205v-144h327v-122z" />
    <glyph glyph-name="arrowright.ss02" horiz-adv-x="739" 
d="M689 346l-312 -207v146h-327v122h327v144z" />
    </font>
</defs>
</svg>
